<svg width="169" height="24" viewBox="0 0 169 24" fill="none" xmlns="http://www.w3.org/2000/svg">
<g clip-path="url(#clip0)">
<path d="M27.373 23.6757V7.91351H32.0432V23.6757H27.373ZM49.5568 23.6757V13.8811C49.5568 12.1297 49.1027 10.6378 48.1297 9.40541C47.1568 8.17297 45.7946 7.58919 43.8486 7.58919C43.2 7.58919 42.3568 7.58919 40.9297 8.43243C40.2811 8.82162 39.7622 9.34054 39.373 9.98919V7.91351H34.7676V23.6757H39.373V14.9189C39.373 13.1676 40.3459 11.8703 42.227 11.8703C44.0432 11.8703 44.9514 13.1027 44.9514 14.9189V23.6757H49.5568ZM61.7513 15.827C61.7513 18.1622 62.5946 20.173 64.2162 21.7297C65.8378 23.2865 67.9135 24.0649 70.3135 24.0649C72.7135 24.0649 74.7243 23.2865 76.4108 21.7297C78.0973 20.1081 78.9405 18.1622 78.9405 15.7622C78.9405 13.427 78.0973 11.4811 76.4757 9.92432C74.8541 8.36757 72.7784 7.58919 70.3784 7.58919C67.9784 7.58919 65.9027 8.36757 64.2162 9.98919C62.5297 11.4811 61.7513 13.4919 61.7513 15.827ZM66.4865 15.7622C66.4865 14.5946 66.8757 13.6216 67.5892 12.9081C68.3027 12.1297 69.2757 11.7405 70.3135 11.7405C71.3513 11.7405 72.3892 12.1297 73.1027 12.9081C73.8162 13.6216 74.2054 14.5946 74.2054 15.7622C74.2054 18.0973 72.5189 19.7838 70.3135 19.7838C69.2757 19.7838 68.2378 19.3946 67.5243 18.6811C66.8108 17.9027 66.4865 16.9297 66.4865 15.7622ZM93.0811 18.9405C93.0811 16.2162 91.0054 14.5946 86.9838 13.8162C85.6216 13.4919 84.9081 13.0378 84.9081 12.3892C84.9081 11.7405 85.6216 11.2216 86.5946 11.2216C87.9568 11.2216 88.8649 11.7405 89.4486 12.7135L92.7568 10.7027C91.7189 8.75676 89.5784 7.52432 86.6595 7.52432C84.973 7.52432 83.6108 7.97838 82.3784 8.95135C81.2108 9.85946 80.627 11.0919 80.627 12.5189C80.627 15.1135 82.5081 16.8 86.2703 17.6432C88.2811 18.0973 88.8 18.5514 88.8 19.2C88.8 19.8486 88.0216 20.3676 86.854 20.3676C85.1676 20.3676 83.9351 19.7189 83.2865 18.4216L79.9135 20.4324C81.2108 22.8324 83.4811 24.0649 86.7892 24.0649C90.6811 24 93.0811 21.9892 93.0811 18.9405ZM17.3838 11.8703C19.0703 11.8703 19.9784 12.8432 19.9784 14.8541V23.6757H24.5838V13.8162C24.5838 9.98919 22.7027 7.52432 19.0054 7.52432C16.8 7.52432 15.3081 8.3027 13.7514 10.0541C12.8432 8.36757 11.3514 7.52432 9.14595 7.52432C7.26486 7.52432 5.38378 8.43243 4.54054 9.92432V9.92432V7.84865H0V23.6108H4.60541V14.9189C4.60541 13.0378 5.57838 11.8703 7.39459 11.8703C9.08108 11.8703 9.98919 12.9081 9.98919 14.9189V23.6757H14.5946V14.8541C14.5946 12.973 15.6324 11.8703 17.3838 11.8703ZM60.3243 11.8703V7.84865H56.4973V0L51.8919 2.65946V17.9676C51.8919 21.6649 54.0324 23.9351 58.1838 23.9351C58.8973 23.9351 59.6108 23.8703 60.3243 23.6108V19.7838C60 19.8486 59.6108 19.9135 59.2865 19.9135C57.4703 19.9135 56.5622 19.2 56.5622 17.3838V11.8703H60.3243V11.8703ZM29.7081 0C28.1513 0 26.9189 1.23243 26.9189 2.78919C26.9189 4.34595 28.1513 5.57838 29.7081 5.57838C31.2649 5.57838 32.4973 4.34595 32.4973 2.78919C32.4973 1.23243 31.2649 0 29.7081 0Z" fill="black"/>
<path d="M167.481 3.95676L164.238 10.7676L160.865 3.95676H160.216H157.622V0L157.038 0.324324V9.72973C157.038 11.1568 157.686 11.8703 159.049 11.8703C159.243 11.8703 159.503 11.8703 159.697 11.8054V11.2865C159.503 11.3514 159.243 11.3514 159.049 11.3514C158.076 11.3514 157.557 10.8324 157.557 9.66487V4.47568H160.476L163.914 11.3514L161.838 15.6973H162.486L168.065 3.89189H167.481V3.95676Z" fill="#AEB4BE"/>
<path d="M96.973 10.8335C96.1946 10.0552 95.8054 9.08218 95.8054 7.91461C95.8054 6.74704 96.1946 5.77407 96.973 4.99569C97.7514 4.21731 98.6595 3.82812 99.7622 3.82812C101.514 3.82812 102.746 4.8011 103.2 6.0984L102.681 6.35785C102.227 5.06056 101.254 4.34704 99.7622 4.34704C98.7892 4.34704 98.0108 4.67137 97.3622 5.38488C96.7135 6.0984 96.3892 6.87677 96.3892 7.84975C96.3892 8.82272 96.7135 9.66596 97.3622 10.3795C98.0108 11.093 98.7892 11.4173 99.7622 11.4173C101.189 11.4173 102.162 10.7687 102.681 9.4065L103.2 9.66596C102.746 10.9633 101.514 12.0011 99.7622 12.0011C98.7243 12.0011 97.7514 11.6119 96.973 10.8335Z" fill="#AEB4BE"/>
<path d="M105.146 10.8312C104.368 10.0528 103.978 9.07981 103.978 7.97711C103.978 6.80954 104.368 5.83657 105.146 5.05819C105.924 4.27981 106.897 3.89062 108.065 3.89062C109.232 3.89062 110.141 4.27981 110.919 5.05819C111.697 5.83657 112.086 6.80954 112.086 7.91225C112.086 9.07981 111.697 10.0528 110.919 10.8312C110.141 11.6095 109.168 11.9987 108 11.9987C106.832 11.9987 105.924 11.6095 105.146 10.8312ZM105.535 5.38252C104.886 6.03117 104.562 6.87441 104.562 7.91225C104.562 8.88522 104.886 9.72846 105.535 10.442C106.184 11.1555 107.027 11.4798 108 11.4798C108.973 11.4798 109.816 11.1555 110.465 10.442C111.114 9.79333 111.438 8.95008 111.438 7.91225C111.438 6.87441 111.114 6.09603 110.465 5.38252C109.816 4.669 108.973 4.34468 108 4.34468C107.027 4.34468 106.184 4.669 105.535 5.38252Z" fill="#AEB4BE"/>
<path d="M118.638 11.8714V7.13623C118.638 5.44975 117.73 4.41191 116.238 4.41191C115.589 4.41191 115.005 4.67137 114.486 5.19029C113.968 5.70921 113.708 6.42272 113.708 7.2011V11.8714H113.124V3.95785H113.708V5.57948C114.097 4.6065 115.005 3.82812 116.303 3.82812C117.795 3.82812 118.638 4.67137 119.027 5.83894C119.481 4.73623 120.519 3.82812 121.816 3.82812C122.789 3.82812 123.503 4.15245 123.957 4.73623C124.476 5.32002 124.735 6.0984 124.735 7.0065V11.8065H124.151V7.13623C124.151 5.44975 123.243 4.41191 121.751 4.41191C121.103 4.41191 120.519 4.67137 120 5.19029C119.481 5.70921 119.222 6.35786 119.222 7.2011V11.8714H118.638Z" fill="#AEB4BE"/>
<path d="M131.611 11.8714V7.13623C131.611 5.44975 130.703 4.41191 129.211 4.41191C128.562 4.41191 127.978 4.67137 127.459 5.19029C126.941 5.70921 126.681 6.42272 126.681 7.2011V11.8714H126.097V3.95785H126.681V5.57948C127.07 4.6065 127.978 3.82812 129.276 3.82812C130.768 3.82812 131.611 4.67137 132 5.83894C132.454 4.73623 133.492 3.82812 134.789 3.82812C135.762 3.82812 136.476 4.15245 136.93 4.73623C137.449 5.32002 137.708 6.0984 137.708 7.0065V11.8065H137.124V7.13623C137.124 5.44975 136.216 4.41191 134.724 4.41191C134.076 4.41191 133.492 4.67137 132.973 5.19029C132.454 5.70921 132.195 6.35786 132.195 7.2011V11.8714H131.611Z" fill="#AEB4BE"/>
<path d="M139.914 11.0922C139.395 10.5084 139.07 9.66514 139.07 8.75703V3.95703H139.654V8.6273C139.654 10.4435 140.627 11.4814 142.314 11.4814C143.092 11.4814 143.741 11.2219 144.259 10.6381C144.778 10.0543 145.103 9.34082 145.103 8.49757V3.95703H145.687V11.8705H145.103V10.1192C144.649 11.2868 143.546 12.0003 142.249 12.0003C141.276 12.0003 140.497 11.676 139.914 11.0922Z" fill="#AEB4BE"/>
<path d="M152.822 4.73623C153.405 5.32002 153.665 6.0984 153.665 7.07137V11.8065H153.081V7.2011C153.081 5.38488 152.108 4.34704 150.422 4.34704C149.643 4.34704 148.995 4.6065 148.411 5.19029C147.892 5.70921 147.632 6.42272 147.632 7.26596V11.8065H147.049V3.95785H147.632V5.70921C148.086 4.54164 149.189 3.82812 150.486 3.82812C151.524 3.82812 152.238 4.15245 152.822 4.73623Z" fill="#AEB4BE"/>
<path d="M155.027 0.971938C155.287 0.712479 155.611 0.712479 155.87 0.971938C156.13 1.16653 156.13 1.55572 155.87 1.81518C155.676 2.00978 155.287 2.00978 155.027 1.81518C154.832 1.55572 154.832 1.2314 155.027 0.971938Z" fill="#AEB4BE"/>
<path d="M155.611 3.95703H155.027V11.8705H155.611V3.95703Z" fill="#AEB4BE"/>
<path d="M155.611 3.95703H155.027V11.8705H155.611V3.95703Z" fill="#AEB4BE"/>
</g>
<defs>
<clipPath id="clip0">
<rect width="168.13" height="24" fill="white"/>
</clipPath>
</defs>
</svg>
