<svg xmlns="http://www.w3.org/2000/svg" viewBox="0 0 239.49 31.09"><defs><style>.cls-1{fill:#aeb4be;}.cls-2{fill:none;}</style></defs><g id="Layer_2" data-name="Layer 2"><g id="Layer_1-2" data-name="Layer 1"><g id="aae3b6ab-6e75-4351-a9fb-e0f61a1d1373"><g id="ff20b352-5683-4715-bd09-4a31cd0b6e8f"><path d="M27.08,23.4V7.8h4.59V23.4ZM49,23.4V13.7a6.76,6.76,0,0,0-1.44-4.41,5,5,0,0,0-4.2-1.78,5.14,5.14,0,0,0-2.87.81A4.19,4.19,0,0,0,39,9.84h0v-2H34.41V23.4H39V14.75a2.74,2.74,0,0,1,2.81-3c1.78,0,2.72,1.2,2.72,3V23.4Zm12-7.77a7.66,7.66,0,0,0,2.46,5.82,8.47,8.47,0,0,0,6,2.3,8.63,8.63,0,0,0,6-2.33,7.78,7.78,0,0,0,2.48-5.88A7.57,7.57,0,0,0,75.6,9.79a8.95,8.95,0,0,0-12.1,0A7.59,7.59,0,0,0,61,15.63Zm4.68-.06a3.87,3.87,0,0,1,1.11-2.83,3.58,3.58,0,0,1,2.72-1.14,3.64,3.64,0,0,1,2.74,1.14,3.87,3.87,0,0,1,1.11,2.83,3.86,3.86,0,0,1-6.57,2.89,4,4,0,0,1-1.11-2.89ZM92,18.7c0-2.72-2.07-4.27-6-5.09-1.37-.29-2-.76-2-1.43S84.64,11,85.57,11a3,3,0,0,1,2.84,1.49l3.3-1.95c-1-1.9-3.13-3.16-6-3.16a6.7,6.7,0,0,0-4.24,1.4,4.3,4.3,0,0,0-1.75,3.54c0,2.54,1.84,4.23,5.55,5.05,2,.44,2.48.91,2.48,1.52s-.76,1.14-1.9,1.14a3.58,3.58,0,0,1-3.5-1.9l-3.36,2c1.25,2.4,3.53,3.59,6.81,3.59C89.63,23.75,92,21.71,92,18.7Zm-74.79-7c1.7,0,2.54,1,2.54,3v8.7h4.56V13.67c0-3.77-1.84-6.22-5.49-6.22a6.3,6.3,0,0,0-5.17,2.48A4.72,4.72,0,0,0,9.09,7.45,5.19,5.19,0,0,0,4.53,9.84H4.47v-2H0V23.4H4.56V14.75c0-1.84.93-3,2.77-3s2.55,1,2.55,3V23.4h4.53V14.7a2.66,2.66,0,0,1,2.8-3Zm42.43,0V7.8H55.87V0L51.31,2.63v15.1c0,3.66,2.13,5.88,6.19,5.88a7.32,7.32,0,0,0,2.14-.29V19.55a4.17,4.17,0,0,1-1,.11c-1.79,0-2.72-.7-2.72-2.48V11.74ZM29.36,0a2.76,2.76,0,1,0,2.75,2.75h0A2.75,2.75,0,0,0,29.36,0Z"/></g></g><path class="cls-1" d="M238.26,7.8l-6.37,13.44L225.23,7.8h-6.5V0l-1.14.66V19.28c0,2.84,1.32,4.24,4,4.24a5.83,5.83,0,0,0,1.34-.18V22.29a6.43,6.43,0,0,1-1.25.15c-2,0-2.93-1.08-2.93-3.27V8.85h5.74l6.81,13.65-4.06,8.59h1.22L239.49,7.8Z"/><path class="cls-1" d="M98.84,21.36a8,8,0,0,1-2.25-5.73,7.92,7.92,0,0,1,2.28-5.76,7.48,7.48,0,0,1,5.55-2.34,6.77,6.77,0,0,1,6.81,4.54l-1.08.46a5.55,5.55,0,0,0-5.73-3.91,6.12,6.12,0,0,0-4.73,2,7,7,0,0,0-1.87,4.91,7.13,7.13,0,0,0,1.89,4.94,6.27,6.27,0,0,0,4.74,2.07,5.67,5.67,0,0,0,5.73-4l1.08.47a7,7,0,0,1-6.84,4.59A7.52,7.52,0,0,1,98.84,21.36Z"/><path class="cls-1" d="M115,21.36a7.74,7.74,0,0,1-2.31-5.7,7.94,7.94,0,0,1,2.28-5.79,7.78,7.78,0,0,1,5.73-2.34,7.63,7.63,0,0,1,5.67,2.32,7.7,7.7,0,0,1,2.31,5.69,8,8,0,0,1-2.28,5.79,8.15,8.15,0,0,1-11.4,0Zm.82-10.73a7,7,0,0,0-1.9,4.94,7,7,0,0,0,1.93,5,6.33,6.33,0,0,0,4.85,2,6.43,6.43,0,0,0,4.85-2,6.89,6.89,0,0,0,1.93-4.94,6.87,6.87,0,0,0-2-5,6.82,6.82,0,0,0-9.7,0Z"/><path class="cls-1" d="M141.6,23.4V14c0-3.36-1.84-5.37-4.73-5.37a4.72,4.72,0,0,0-3.48,1.58,5.53,5.53,0,0,0-1.55,4v9.2H130.7V7.8h1.14V11A5.5,5.5,0,0,1,137,7.53a5.29,5.29,0,0,1,5.41,4,6,6,0,0,1,5.49-4,5.19,5.19,0,0,1,4.27,1.82,6.83,6.83,0,0,1,1.49,4.53V23.4H152.5V14.05c0-3.39-1.81-5.43-4.76-5.43a4.75,4.75,0,0,0-3.48,1.55,5.41,5.41,0,0,0-1.52,4V23.4Z"/><path class="cls-1" d="M167.31,23.4V14c0-3.36-1.84-5.37-4.74-5.37a4.71,4.71,0,0,0-3.47,1.58,5.49,5.49,0,0,0-1.55,4v9.2h-1.14V7.8h1.14V11a5.5,5.5,0,0,1,5.14-3.51,5.3,5.3,0,0,1,5.41,4,6,6,0,0,1,5.49-4,5.19,5.19,0,0,1,4.27,1.82,6.83,6.83,0,0,1,1.49,4.53V23.4h-1.14V14.05c0-3.39-1.82-5.43-4.77-5.43A4.74,4.74,0,0,0,170,10.17a5.37,5.37,0,0,0-1.52,4V23.4Z"/><path class="cls-1" d="M183.75,21.88a6.73,6.73,0,0,1-1.64-4.67V7.8h1.14V17c0,3.6,2,5.64,5.24,5.64A5.19,5.19,0,0,0,192.37,21,5.75,5.75,0,0,0,194,16.77v-9h1.14V23.4H194V20a6.34,6.34,0,0,1-10.23,1.92Z"/><path class="cls-1" d="M209.23,9.35A6.56,6.56,0,0,1,210.89,14V23.4h-1.17V14.26c0-3.6-1.93-5.64-5.2-5.64a5.22,5.22,0,0,0-3.91,1.66A5.71,5.71,0,0,0,199,14.43v9h-1.14V7.8H199v3.45a5.91,5.91,0,0,1,5.67-3.72A5.82,5.82,0,0,1,209.23,9.35Z"/><path class="cls-1" d="M213.43,1.93a1.1,1.1,0,0,1,1.61,0,1.18,1.18,0,0,1,0,1.67,1.12,1.12,0,0,1-1.61,0A1.18,1.18,0,0,1,213.43,1.93Z"/><rect class="cls-1" x="213.66" y="7.8" width="1.17" height="15.6"/><rect class="cls-2" x="213.66" y="7.8" width="1.17" height="15.6"/></g></g></svg>
