<svg id="Layer_1" data-name="Layer 1" xmlns="http://www.w3.org/2000/svg" width="168.9238" height="24" viewBox="0 0 168.9238 24">
  <defs>
    <style>
      .cls-1 {
        fill: #136fe8;
      }

      .cls-2 {
        fill: none;
      }
    </style>
  </defs>
  <g>
    <path id="aae3b6ab-6e75-4351-a9fb-e0f61a1d1373" d="M27.0794,23.4031V7.799h4.5877V23.4031Zm21.9362,0V13.7016a6.7848,6.7848,0,0,0-1.4317-4.4123,5,5,0,0,0-4.208-1.7825,5.0781,5.0781,0,0,0-2.8636.8182,4.0715,4.0715,0,0,0-1.5487,1.5194h-.0293V7.799H34.405V23.4031h4.5585V14.7536a2.7336,2.7336,0,0,1,2.8053-3.039c1.7825,0,2.7175,1.1981,2.7175,3.039v8.6495ZM61.0138,15.63a7.6584,7.6584,0,0,0,2.4545,5.815,8.4537,8.4537,0,0,0,6.0489,2.3086,8.5754,8.5754,0,0,0,6.0487-2.3378A7.75,7.75,0,0,0,78.05,15.5426a7.577,7.577,0,0,0-2.4546-5.7564,8.4566,8.4566,0,0,0-6.02-2.3378,8.544,8.544,0,0,0-6.0781,2.367A7.6248,7.6248,0,0,0,61.0138,15.63Zm4.6754-.0585A3.8767,3.8767,0,0,1,66.8,12.7374a3.6176,3.6176,0,0,1,2.7175-1.1395,3.6819,3.6819,0,0,1,2.7468,1.14,3.8774,3.8774,0,0,1,1.11,2.8344A3.8657,3.8657,0,0,1,66.8,18.4648a4.0149,4.0149,0,0,1-1.11-2.893ZM92,18.6985c0-2.7175-2.0747-4.2662-6.0195-5.0845-1.3735-.2921-2.0455-.76-2.0455-1.4318,0-.6136.7013-1.14,1.6364-1.14a3.0273,3.0273,0,0,1,2.8344,1.49l3.3019-1.9579c-1.0226-1.8994-3.1265-3.156-6.0194-3.156a6.6653,6.6653,0,0,0-4.2372,1.4027,4.2936,4.2936,0,0,0-1.7533,3.5357c0,2.5422,1.841,4.237,5.5521,5.0552,1.987.4384,2.4839.9059,2.4839,1.52s-.76,1.14-1.8994,1.14a3.5919,3.5919,0,0,1-3.5065-1.8994L78.9673,20.16c1.2566,2.3962,3.5358,3.5943,6.8086,3.5943C89.6332,23.7538,92,21.7083,92,18.6985ZM17.2112,11.7146q2.5425,0,2.5424,2.9806v8.7079h4.5585V13.6724c0-3.7695-1.841-6.2241-5.4936-6.2241a6.2919,6.2919,0,0,0-5.1722,2.4838A4.7048,4.7048,0,0,0,9.0878,7.4483,5.1931,5.1931,0,0,0,4.5293,9.8444H4.4708V7.799H0V23.4031H4.5585V14.7536c0-1.8409.9351-3.039,2.776-3.039,1.6948,0,2.5422,1.0227,2.5422,3.039v8.6495H14.406V14.6952a2.6609,2.6609,0,0,1,2.8052-2.9806Zm42.4263.0292V7.799h-3.77V0L51.3094,2.6318V17.7342c0,3.6526,2.1332,5.8735,6.195,5.8735a7.2377,7.2377,0,0,0,2.1331-.2922v-3.77a3.9989,3.9989,0,0,1-1.0518.1169c-1.7827,0-2.7178-.7013-2.7178-2.4837V11.7438ZM29.3585,0a2.7526,2.7526,0,1,0,2.7526,2.7526h0A2.7526,2.7526,0,0,0,29.3585,0Z"/>
    <path class="cls-1" d="M96.6953,9.9191a2.5827,2.5827,0,0,0,2.0323.9061,2.48,2.48,0,0,0,2.469-1.7533l.9935.4385a3.5178,3.5178,0,0,1-3.478,2.3232,3.88,3.88,0,0,1-2.8343-1.14,3.9653,3.9653,0,0,1-1.14-2.8932,3.967,3.967,0,0,1,3.99-4.033,3.4689,3.4689,0,0,1,3.434,2.2792l-.9936.4384a2.4591,2.4591,0,0,0-2.44-1.71,2.6481,2.6481,0,0,0-2.0323.8769,2.9876,2.9876,0,0,0-.7889,2.1043A3.1836,3.1836,0,0,0,96.6953,9.9191Zm7.3335.7455A3.8577,3.8577,0,0,1,102.8746,7.83a4.0509,4.0509,0,0,1,6.8977-2.8932,3.85,3.85,0,0,1,1.1685,2.8349,4.061,4.061,0,0,1-6.912,2.8932Zm4.9249-.7163a3.0082,3.0082,0,0,0,.8186-2.1186,3.1412,3.1412,0,0,0-.8186-2.1626,2.81,2.81,0,0,0-4.1063-.0292,3.0268,3.0268,0,0,0-.8043,2.1335,3.1233,3.1233,0,0,0,.8043,2.1626,2.6776,2.6776,0,0,0,2.0752.8912A2.6453,2.6453,0,0,0,108.9537,9.9483Zm8.3325,1.7538V7.1283c0-1.3589-.6722-2.3381-2.0168-2.3381a1.9436,1.9436,0,0,0-1.5778.7305,2.66,2.66,0,0,0-.5842,1.739v4.4424h-1.14V3.8989h1.1244V5.2578a2.81,2.81,0,0,1,2.5142-1.5052,2.5477,2.5477,0,0,1,2.4988,1.5635,3.12,3.12,0,0,1,2.7474-1.5486A2.7829,2.7829,0,0,1,123.7306,6.88v4.8225h-1.14V7.1574c0-1.4028-.6568-2.353-2.0168-2.353a1.9619,1.9619,0,0,0-1.5778.7021,2.5009,2.5009,0,0,0-.5842,1.7092v4.4864Zm13.1321,0V7.1283c0-1.3589-.6723-2.3381-2.0168-2.3381a1.9435,1.9435,0,0,0-1.5778.7305A2.66,2.66,0,0,0,126.24,7.26v4.4424H125.1V3.8989h1.1244V5.2578a2.81,2.81,0,0,1,2.5142-1.5052,2.5478,2.5478,0,0,1,2.4988,1.5635,3.12,3.12,0,0,1,2.7474-1.5486A2.7829,2.7829,0,0,1,136.8627,6.88v4.8225h-1.14V7.1574c0-1.4028-.6568-2.353-2.0169-2.353a1.9617,1.9617,0,0,0-1.5777.7021,2.5005,2.5005,0,0,0-.5843,1.7092v4.4864Zm8.939-7.8032V8.4437a2.08,2.08,0,0,0,2.162,2.3672,2.1839,2.1839,0,0,0,1.6658-.7014,2.4623,2.4623,0,0,0,.658-1.7539V3.8989h1.1256v7.8032h-1.1113V10.27a2.8956,2.8956,0,0,1-2.6737,1.5784,2.8272,2.8272,0,0,1-2.952-3.1276V3.8989Zm12.6061,7.8032V7.1574A2.08,2.08,0,0,0,149.8,4.79a2.1475,2.1475,0,0,0-1.6658.7163,2.4651,2.4651,0,0,0-.6568,1.7532v4.4424h-1.14V3.8989h1.1244V5.331a2.9334,2.9334,0,0,1,2.6891-1.5784,2.8268,2.8268,0,0,1,2.9521,3.127v4.8225Zm3.5678,0H154.377V3.8989h1.1542Zm12.1647-7.8032L164.9925,9.934l-2.8641-6.0351h-4.1027V0L156.9.65v9.035c0,1.3886.7306,2.0751,2.206,2.0751a3.2021,3.2021,0,0,0,.8913-.1166v-.95a2.889,2.889,0,0,1-.7009.0583q-1.2708,0-1.2708-1.0958V4.9068h3.28l3.0589,6.2694-2.0168,4.3692h1.2279l5.3485-11.6465ZM154.0985,1.3834a.855.855,0,1,0,.8484-.862A.8491.8491,0,0,0,154.0985,1.3834Z"/>
  </g>
  <g id="aae3b6ab-6e75-4351-a9fb-e0f61a1d1373-2" data-name="aae3b6ab-6e75-4351-a9fb-e0f61a1d1373">
    <g id="ff20b352-5683-4715-bd09-4a31cd0b6e8f">
      <path class="cls-2" d="M27.0794,23.4031V7.799h4.5877V23.4031Zm21.9362,0V13.7016a6.7848,6.7848,0,0,0-1.4317-4.4123,5,5,0,0,0-4.208-1.7825,5.0781,5.0781,0,0,0-2.8636.8182,4.0715,4.0715,0,0,0-1.5487,1.5194h-.0293V7.799H34.405V23.4031h4.5585V14.7536a2.7336,2.7336,0,0,1,2.8053-3.039c1.7825,0,2.7175,1.1981,2.7175,3.039v8.6495ZM61.0138,15.63a7.6584,7.6584,0,0,0,2.4545,5.815,8.4537,8.4537,0,0,0,6.0489,2.3086,8.5754,8.5754,0,0,0,6.0487-2.3378A7.75,7.75,0,0,0,78.05,15.5426a7.577,7.577,0,0,0-2.4546-5.7564,8.4566,8.4566,0,0,0-6.02-2.3378,8.544,8.544,0,0,0-6.0781,2.367A7.6248,7.6248,0,0,0,61.0138,15.63Zm4.6754-.0585A3.8767,3.8767,0,0,1,66.8,12.7374a3.6176,3.6176,0,0,1,2.7175-1.1395,3.6819,3.6819,0,0,1,2.7468,1.14,3.8774,3.8774,0,0,1,1.11,2.8344A3.8657,3.8657,0,0,1,66.8,18.4648a4.0149,4.0149,0,0,1-1.11-2.893ZM92,18.6985c0-2.7175-2.0747-4.2662-6.0195-5.0845-1.3735-.2921-2.0455-.76-2.0455-1.4318,0-.6136.7013-1.14,1.6364-1.14a3.0273,3.0273,0,0,1,2.8344,1.49l3.3019-1.9579c-1.0226-1.8994-3.1265-3.156-6.0194-3.156a6.6653,6.6653,0,0,0-4.2372,1.4027,4.2936,4.2936,0,0,0-1.7533,3.5357c0,2.5422,1.841,4.237,5.5521,5.0552,1.987.4384,2.4839.9059,2.4839,1.52s-.76,1.14-1.8994,1.14a3.5919,3.5919,0,0,1-3.5065-1.8994L78.9673,20.16c1.2566,2.3962,3.5358,3.5943,6.8086,3.5943C89.6332,23.7538,92,21.7083,92,18.6985ZM17.2112,11.7146q2.5425,0,2.5424,2.9806v8.7079h4.5585V13.6724c0-3.7695-1.841-6.2241-5.4936-6.2241a6.2919,6.2919,0,0,0-5.1722,2.4838A4.7048,4.7048,0,0,0,9.0878,7.4483,5.1931,5.1931,0,0,0,4.5293,9.8444H4.4708V7.799H0V23.4031H4.5585V14.7536c0-1.8409.9351-3.039,2.776-3.039,1.6948,0,2.5422,1.0227,2.5422,3.039v8.6495H14.406V14.6952a2.6609,2.6609,0,0,1,2.8052-2.9806Zm42.4263.0292V7.799h-3.77V0L51.3094,2.6318V17.7342c0,3.6526,2.1332,5.8735,6.195,5.8735a7.2377,7.2377,0,0,0,2.1331-.2922v-3.77a3.9989,3.9989,0,0,1-1.0518.1169c-1.7827,0-2.7178-.7013-2.7178-2.4837V11.7438ZM29.3585,0a2.7526,2.7526,0,1,0,2.7526,2.7526h0A2.7526,2.7526,0,0,0,29.3585,0Z"/>
    </g>
  </g>
</svg>
