<?xml version="1.0" encoding="utf-8"?>
<!-- Generator: Adobe Illustrator 25.2.1, SVG Export Plug-In . SVG Version: 6.00 Build 0)  -->
<svg version="1.1" id="Layer_1" xmlns="http://www.w3.org/2000/svg" xmlns:xlink="http://www.w3.org/1999/xlink" x="0px" y="0px"
	 viewBox="0 0 240 32" style="enable-background:new 0 0 240 32;" xml:space="preserve">
<style type="text/css">
	.st0{fill:#AEB4BE;}
	.st1{fill:none;}
</style>
<g>
	<g id="aae3b6ab-6e75-4351-a9fb-e0f61a1d1373_4_">
		<g id="ff20b352-5683-4715-bd09-4a31cd0b6e8f_4_">
			<path d="M27.1,23.4V7.8h4.6v15.6H27.1z M49,23.4v-9.7c0-1.8-0.5-3.2-1.4-4.4c-0.9-1.2-2.3-1.8-4.2-1.8c-0.7,0-1.5,0-2.9,0.8
				c-0.6,0.4-1.2,0.9-1.5,1.5h0v-2h-4.5v15.6H39v-8.6c0-1.7,1-3,2.8-3c1.8,0,2.7,1.2,2.7,3v8.6H49z M61,15.6c0,2.3,0.8,4.3,2.5,5.8
				c1.6,1.5,3.7,2.3,6,2.3c2.4,0,4.4-0.8,6-2.3c1.7-1.6,2.5-3.5,2.5-5.9c0-2.3-0.8-4.2-2.5-5.8c-1.6-1.5-3.7-2.3-6-2.3
				c-2.4,0-4.4,0.8-6.1,2.4C61.8,11.4,61,13.3,61,15.6L61,15.6z M65.7,15.6c0-1.1,0.4-2.1,1.1-2.8c0.7-0.7,1.7-1.2,2.7-1.1
				c1,0,2,0.4,2.7,1.1c0.7,0.7,1.1,1.7,1.1,2.8c0,2.3-1.6,4-3.8,4c-1,0-2-0.4-2.7-1.1C66.1,17.7,65.7,16.7,65.7,15.6L65.7,15.6z
				 M92,18.7c0-2.7-2.1-4.3-6-5.1c-1.4-0.3-2-0.8-2-1.4c0-0.6,0.7-1.1,1.6-1.1c1.3,0,2.3,0.5,2.8,1.5l3.3-2c-1-1.9-3.1-3.2-6-3.2
				c-1.6,0-3,0.5-4.2,1.4c-1.2,0.9-1.8,2.1-1.8,3.5c0,2.5,1.8,4.2,5.6,5.1c2,0.4,2.5,0.9,2.5,1.5c0,0.6-0.8,1.1-1.9,1.1
				c-1.7,0-2.9-0.6-3.5-1.9l-3.4,2c1.3,2.4,3.5,3.6,6.8,3.6C89.6,23.8,92,21.7,92,18.7z M17.2,11.7c1.7,0,2.5,1,2.5,3v8.7h4.6v-9.7
				c0-3.8-1.8-6.2-5.5-6.2c-2.2,0-3.7,0.8-5.2,2.5c-0.9-1.7-2.4-2.5-4.6-2.5c-1.9,0-3.7,0.9-4.6,2.4H4.5v-2H0v15.6h4.6v-8.6
				c0-1.8,0.9-3,2.8-3c1.7,0,2.5,1,2.5,3v8.6h4.5v-8.7C14.4,12.9,15.4,11.7,17.2,11.7L17.2,11.7z M59.6,11.7V7.8h-3.8V0l-4.6,2.6
				v15.1c0,3.7,2.1,5.9,6.2,5.9c0.7,0,1.4-0.1,2.1-0.3v-3.8c-0.3,0.1-0.7,0.1-1.1,0.1c-1.8,0-2.7-0.7-2.7-2.5v-5.4H59.6z M29.4,0
				c-1.5,0-2.8,1.2-2.8,2.8s1.2,2.8,2.8,2.8s2.8-1.2,2.8-2.8v0C32.1,1.2,30.9,0,29.4,0z"/>
		</g>
	</g>
	<g>
		<path class="st0" d="M238.3,7.8l-6.4,13.4l-6.7-13.4h-1.3h-5.2V0l-1.1,0.7v18.6c0,2.8,1.3,4.2,4,4.2c0.4,0,0.8-0.1,1.3-0.2v-1.1
			c-0.4,0.1-0.9,0.1-1.3,0.1c-2,0-2.9-1.1-2.9-3.3V8.9h5.7l6.8,13.6l-4.1,8.6h1.2l11-23.3H238.3z"/>
		<path class="st0" d="M98.8,21.4c-1.5-1.5-2.3-3.4-2.3-5.7s0.8-4.2,2.3-5.8s3.4-2.3,5.6-2.3c3.5,0,5.9,1.9,6.8,4.5l-1.1,0.5
			c-0.9-2.6-2.8-3.9-5.7-3.9c-1.9,0-3.5,0.7-4.7,2c-1.3,1.4-1.9,3-1.9,4.9c0,1.9,0.6,3.6,1.9,4.9c1.3,1.4,2.9,2.1,4.7,2.1
			c2.8,0,4.7-1.3,5.7-4l1.1,0.5c-0.9,2.6-3.3,4.6-6.8,4.6C102.2,23.7,100.4,22.9,98.8,21.4z"/>
		<path class="st0" d="M114.9,21.4c-1.5-1.5-2.3-3.4-2.3-5.7c0-2.3,0.8-4.2,2.3-5.8c1.5-1.5,3.4-2.3,5.7-2.3c2.3,0,4.1,0.8,5.7,2.3
			c1.5,1.5,2.3,3.4,2.3,5.7c0,2.3-0.8,4.2-2.3,5.8c-1.5,1.5-3.4,2.3-5.7,2.3C118.4,23.7,116.5,22.9,114.9,21.4z M115.8,10.6
			c-1.3,1.3-1.9,3-1.9,4.9c0,2,0.6,3.6,1.9,5c1.3,1.4,2.9,2,4.8,2c2,0,3.6-0.7,4.9-2c1.3-1.3,1.9-3,1.9-4.9s-0.6-3.6-2-5
			c-1.3-1.4-2.9-2-4.9-2C118.7,8.6,117.1,9.3,115.8,10.6z"/>
		<path class="st0" d="M141.6,23.4V14c0-3.4-1.8-5.4-4.7-5.4c-1.3,0-2.5,0.5-3.5,1.6c-1,1.1-1.5,2.4-1.5,4v9.2h-1.1V7.8h1.1V11
			c0.7-1.9,2.6-3.5,5.1-3.5c2.9,0,4.7,1.6,5.4,4c0.8-2.2,2.9-4,5.5-4c1.9,0,3.3,0.6,4.3,1.8c1,1.2,1.5,2.7,1.5,4.5v9.5h-1.1v-9.4
			c0-3.4-1.8-5.4-4.8-5.4c-1.3,0-2.5,0.5-3.5,1.5c-1,1-1.5,2.4-1.5,4v9.2H141.6z"/>
		<path class="st0" d="M167.3,23.4V14c0-3.4-1.8-5.4-4.7-5.4c-1.3,0-2.5,0.5-3.5,1.6c-1,1.1-1.5,2.4-1.5,4v9.2h-1.1V7.8h1.1V11
			c0.7-1.9,2.6-3.5,5.1-3.5c2.9,0,4.7,1.6,5.4,4c0.8-2.2,2.9-4,5.5-4c1.9,0,3.3,0.6,4.3,1.8c1,1.2,1.5,2.7,1.5,4.5v9.5h-1.1v-9.4
			c0-3.4-1.8-5.4-4.8-5.4c-1.3,0-2.5,0.5-3.5,1.5c-1,1-1.5,2.4-1.5,4v9.2H167.3z"/>
		<path class="st0" d="M183.8,21.9c-1.1-1.2-1.6-2.8-1.6-4.7V7.8h1.1V17c0,3.6,2,5.6,5.2,5.6c1.5,0,2.8-0.6,3.9-1.6
			c1.1-1.1,1.6-2.5,1.6-4.2v-9h1.1v15.6H194V20c-0.8,2.2-3.1,3.7-5.7,3.7C186.4,23.7,184.9,23.1,183.8,21.9z"/>
		<path class="st0" d="M209.2,9.3c1.1,1.2,1.7,2.7,1.7,4.7v9.4h-1.2v-9.1c0-3.6-1.9-5.6-5.2-5.6c-1.5,0-2.8,0.6-3.9,1.7
			c-1.1,1.1-1.6,2.5-1.6,4.1v9h-1.1V7.8h1.1v3.4c0.8-2.3,3.1-3.7,5.7-3.7C206.6,7.5,208.1,8.1,209.2,9.3z"/>
		<path class="st0" d="M213.4,1.9c0.5-0.5,1.2-0.5,1.6,0c0.5,0.4,0.5,1.2,0,1.7c-0.4,0.4-1.1,0.4-1.6,0C213,3.1,213,2.4,213.4,1.9z"
			/>
		<rect x="213.7" y="7.8" class="st0" width="1.2" height="15.6"/>
		<rect x="213.7" y="7.8" class="st1" width="1.2" height="15.6"/>
	</g>
	<g id="aae3b6ab-6e75-4351-a9fb-e0f61a1d1373_3_">
		<g id="ff20b352-5683-4715-bd09-4a31cd0b6e8f_3_">
			<path class="st1" d="M27.1,23.4V7.8h4.6v15.6H27.1z M49,23.4v-9.7c0-1.8-0.5-3.2-1.4-4.4c-0.9-1.2-2.3-1.8-4.2-1.8
				c-0.7,0-1.5,0-2.9,0.8c-0.6,0.4-1.2,0.9-1.5,1.5h0v-2h-4.5v15.6H39v-8.6c0-1.7,1-3,2.8-3c1.8,0,2.7,1.2,2.7,3v8.6H49z M61,15.6
				c0,2.3,0.8,4.3,2.5,5.8c1.6,1.5,3.7,2.3,6,2.3c2.4,0,4.4-0.8,6-2.3c1.7-1.6,2.5-3.5,2.5-5.9c0-2.3-0.8-4.2-2.5-5.8
				c-1.6-1.5-3.7-2.3-6-2.3c-2.4,0-4.4,0.8-6.1,2.4C61.8,11.4,61,13.3,61,15.6L61,15.6z M65.7,15.6c0-1.1,0.4-2.1,1.1-2.8
				c0.7-0.7,1.7-1.2,2.7-1.1c1,0,2,0.4,2.7,1.1c0.7,0.7,1.1,1.7,1.1,2.8c0,2.3-1.6,4-3.8,4c-1,0-2-0.4-2.7-1.1
				C66.1,17.7,65.7,16.7,65.7,15.6L65.7,15.6z M92,18.7c0-2.7-2.1-4.3-6-5.1c-1.4-0.3-2-0.8-2-1.4c0-0.6,0.7-1.1,1.6-1.1
				c1.3,0,2.3,0.5,2.8,1.5l3.3-2c-1-1.9-3.1-3.2-6-3.2c-1.6,0-3,0.5-4.2,1.4c-1.2,0.9-1.8,2.1-1.8,3.5c0,2.5,1.8,4.2,5.6,5.1
				c2,0.4,2.5,0.9,2.5,1.5c0,0.6-0.8,1.1-1.9,1.1c-1.7,0-2.9-0.6-3.5-1.9l-3.4,2c1.3,2.4,3.5,3.6,6.8,3.6C89.6,23.8,92,21.7,92,18.7
				z M17.2,11.7c1.7,0,2.5,1,2.5,3v8.7h4.6v-9.7c0-3.8-1.8-6.2-5.5-6.2c-2.2,0-3.7,0.8-5.2,2.5c-0.9-1.7-2.4-2.5-4.6-2.5
				c-1.9,0-3.7,0.9-4.6,2.4H4.5v-2H0v15.6h4.6v-8.6c0-1.8,0.9-3,2.8-3c1.7,0,2.5,1,2.5,3v8.6h4.5v-8.7
				C14.4,12.9,15.4,11.7,17.2,11.7L17.2,11.7z M59.6,11.7V7.8h-3.8V0l-4.6,2.6v15.1c0,3.7,2.1,5.9,6.2,5.9c0.7,0,1.4-0.1,2.1-0.3
				v-3.8c-0.3,0.1-0.7,0.1-1.1,0.1c-1.8,0-2.7-0.7-2.7-2.5v-5.4H59.6z M29.4,0c-1.5,0-2.8,1.2-2.8,2.8s1.2,2.8,2.8,2.8
				s2.8-1.2,2.8-2.8v0C32.1,1.2,30.9,0,29.4,0z"/>
		</g>
	</g>
</g>
<rect y="0" class="st1" width="92" height="24"/>
</svg>
