<svg width="1600" height="300" viewBox="0 0 1600 300" fill="none" xmlns="http://www.w3.org/2000/svg">
<g clip-path="url(#clip0)">
<rect width="1600" height="300" fill="white"/>
<rect width="1600" height="300" fill="#DEEEFC"/>
<circle cx="1600" r="390" fill="#FAC636"/>
<circle cx="1600" r="390" fill="#FAC636"/>
<rect x="1400" y="260" width="40" height="40" fill="#136FE8"/>
<path d="M1440 228C1440 223.582 1443.58 220 1448 220H1480V260H1440V228Z" fill="#136FE8"/>
<rect x="1480" y="220" width="40" height="40" fill="#136FE8"/>
<rect x="1520" y="220" width="40" height="40" fill="#136FE8"/>
<rect x="1560" y="220" width="40" height="40" fill="#136FE8"/>
<rect x="1480" y="260" width="40" height="40" fill="#136FE8"/>
<rect x="1520" y="260" width="40" height="40" fill="#136FE8"/>
<rect x="1560" y="260" width="40" height="40" fill="#136FE8"/>
<path d="M1480 188C1480 183.582 1483.58 180 1488 180H1520V220H1480V188Z" fill="#136FE8"/>
<rect x="1520" y="180" width="40" height="40" fill="#136FE8"/>
<rect x="1560" y="180" width="40" height="40" fill="#136FE8"/>
<rect x="1440" y="260" width="40" height="40" fill="#136FE8"/>
<circle cy="300" r="305" fill="#136FE8"/>
<path d="M200 32C200 36.4183 196.418 40 192 40H160V0H200V32Z" fill="#FAC636"/>
<path d="M160 72C160 76.4183 156.418 80 152 80H120V40H160V72Z" fill="#FAC636"/>
<rect x="120" y="80" width="40" height="40" transform="rotate(-180 120 80)" fill="#FAC636"/>
<rect x="80" y="80" width="40" height="40" transform="rotate(-180 80 80)" fill="#FAC636"/>
<rect x="40" y="80" width="40" height="40" transform="rotate(-180 40 80)" fill="#FAC636"/>
<rect x="120" y="40" width="40" height="40" transform="rotate(-180 120 40)" fill="#FAC636"/>
<rect x="80" y="40" width="40" height="40" transform="rotate(-180 80 40)" fill="#FAC636"/>
<rect x="40" y="40" width="40" height="40" transform="rotate(-180 40 40)" fill="#FAC636"/>
<path d="M120 112C120 116.418 116.418 120 112 120H80V80H120V112Z" fill="#FAC636"/>
<rect x="80" y="120" width="40" height="40" transform="rotate(-180 80 120)" fill="#FAC636"/>
<path d="M80 152C80 156.418 76.4183 160 72 160H40V120H80V152Z" fill="#FAC636"/>
<path d="M40 192C40 196.418 36.4183 200 32 200H0V160H40V192Z" fill="#FAC636"/>
<rect x="40" y="120" width="40" height="40" transform="rotate(-180 40 120)" fill="#FAC636"/>
<rect x="40" y="160" width="40" height="40" transform="rotate(-180 40 160)" fill="#FAC636"/>
<rect x="160" y="40" width="40" height="40" transform="rotate(-180 160 40)" fill="#FAC636"/>
<path fill-rule="evenodd" clip-rule="evenodd" d="M310.017 86.4403L367.264 86.4464V131.442C367.264 138.265 361.733 143.795 354.911 143.795H333.538H310.017V86.4403Z" fill="#FFAE74"/>
<path fill-rule="evenodd" clip-rule="evenodd" d="M310.017 149.039V143.795H333.538V163.063H324.043L310.017 149.039Z" fill="#FE924A"/>
<path fill-rule="evenodd" clip-rule="evenodd" d="M390.926 266.315L385.517 246.117H404.588V255.577L423.946 312.812H453.888L403.024 361.807C401.226 366.734 398.084 370.775 394.178 373.702V290.96C394.177 282.637 393.085 274.351 390.926 266.315" fill="#FFAE74"/>
<path fill-rule="evenodd" clip-rule="evenodd" d="M310.02 149.039V163.063C310.02 173.696 301.399 182.316 290.766 182.316H290.713H281.826H269.589H261.241V84.4025C261.241 59.8802 281.121 40 305.644 40H305.663H326.035C348.817 40 367.287 58.4689 367.287 81.2533V86.437H310.02V86.44V143.795V149.039Z" fill="black"/>
<path fill-rule="evenodd" clip-rule="evenodd" d="M186.404 246.118H223.463H240.387L240.38 246.151L223.381 309.629V309.63L212.185 351.448V400H168.77L160.399 352.522C160.136 351.023 160.003 349.503 160 347.981C159.994 345.661 160.297 343.348 160.9 341.109L186.404 246.118Z" fill="#FFAE74"/>
<path fill-rule="evenodd" clip-rule="evenodd" d="M240.379 246.152L240.388 246.118H223.462H186.403L198.317 201.645C201.413 190.113 211.942 182.152 223.883 182.317H269.585H269.586H281.823H290.71H290.763C301.396 182.317 310.016 173.696 310.016 163.061H324.044H333.537H333.568V170.047C333.568 176.823 339.062 182.317 345.839 182.317H378.562C392.965 182.317 404.641 193.993 404.641 208.394V246.118H404.589H385.517L390.926 266.315C393.084 274.353 394.178 282.637 394.179 290.96V373.702V380.336C394.179 389.214 386.981 396.411 378.103 396.412H377.125H377.107H340.833H272.723H239.376C239.183 396.412 238.997 396.39 238.806 396.382C230.195 396.086 223.296 389.032 223.29 380.347V380.305L223.382 309.63L240.379 246.152Z" fill="#E84D26"/>
<g style="mix-blend-mode:multiply">
<path fill-rule="evenodd" clip-rule="evenodd" d="M240.379 246.152C250.79 256.58 256.638 270.712 256.637 285.448V380.305C256.62 389.184 263.803 396.394 272.681 396.411C272.694 396.412 272.71 396.412 272.723 396.412H239.376C239.183 396.412 238.997 396.39 238.806 396.382C230.195 396.086 223.296 389.032 223.29 380.347V380.305L223.382 309.63L240.379 246.152Z" fill="#E84D26"/>
</g>
<path fill-rule="evenodd" clip-rule="evenodd" d="M324.044 163.062H310.017V149.038L324.044 163.062Z" fill="#FFAE74"/>
<path fill-rule="evenodd" clip-rule="evenodd" d="M1244.46 226.469C1244.54 251.885 1265.16 272.462 1290.6 272.462C1316.07 272.453 1336.71 251.806 1336.72 226.335H1336.73V299.997H1244.45V226.469H1244.46Z" fill="white"/>
<path fill-rule="evenodd" clip-rule="evenodd" d="M1199.36 228.013C1202.06 227.507 1204.55 226.183 1206.47 224.223L1229.85 200.84C1232.46 198.229 1235.99 196.759 1239.68 196.762H1244.45V226.317V226.354L1244.45 226.351C1244.45 226.39 1244.45 226.43 1244.45 226.469H1244.45V299.997H1120C1130.65 262.94 1161.33 234.994 1199.36 228.013" fill="#1E3877"/>
<path fill-rule="evenodd" clip-rule="evenodd" d="M1336.72 196.631H1341.6C1345.29 196.631 1348.83 198.095 1351.45 200.706L1373 222.26C1375.61 224.862 1379.14 226.323 1382.83 226.32C1428.26 226.335 1468.07 256.475 1480.54 300H1336.72V226.338V196.631Z" fill="#1E3877"/>
<path fill-rule="evenodd" clip-rule="evenodd" d="M1290.6 272.465C1265.16 272.465 1244.54 251.885 1244.46 226.472C1244.46 226.432 1244.46 226.393 1244.46 226.353L1292.16 178.646H1244.45H1216.68H1216.66C1205.54 178.637 1196.54 169.619 1196.55 158.502V92.5795C1196.54 83.3578 1197.8 74.2182 1200.19 65.3738V65.4225H1249.58H1249.6C1255.87 65.4225 1260.94 70.499 1260.94 76.7625C1260.94 83.026 1266.02 88.1087 1272.28 88.1178C1278.55 88.1178 1283.64 93.2035 1283.64 99.4731V110.813L1297.56 110.847V105.664C1297.56 105.253 1297.58 104.839 1297.62 104.431C1298.27 97.9787 1304.02 93.2735 1310.48 93.9217C1316.61 94.6917 1321.19 99.9631 1321.08 106.15V115.996C1321.08 124.643 1328.08 131.652 1336.73 131.661V226.32V226.338C1336.72 251.809 1316.07 272.456 1290.6 272.465" fill="#FFAE74"/>
<path fill-rule="evenodd" clip-rule="evenodd" d="M1244.46 226.348H1244.45V226.315V196.76V178.645H1292.16L1244.46 226.348Z" fill="#FE924A"/>
<path fill-rule="evenodd" clip-rule="evenodd" d="M1321.08 115.998V106.152C1321.18 99.9647 1316.61 94.6934 1310.47 93.9234C1304.02 93.2751 1298.26 97.9803 1297.62 104.433C1297.57 104.84 1297.56 105.254 1297.56 105.665V110.848L1283.63 110.815V99.4747C1283.63 93.2051 1278.55 88.1194 1272.28 88.1194C1266.01 88.1103 1260.94 83.0277 1260.94 76.7642C1260.94 70.5006 1255.86 65.4241 1249.6 65.4241H1249.58H1200.18V65.3754L1200.37 48.1462C1200.5 32.5635 1213.17 20 1228.75 20H1275.25C1309.21 20 1336.74 47.5314 1336.74 81.4937V131.666C1336.74 131.666 1336.73 131.663 1336.72 131.663C1328.08 131.657 1321.08 124.644 1321.08 115.998" fill="black"/>
<g clip-path="url(#clip1)">
<path d="M40 168C40 163.6 43.6 160 48 160L40 160L40 168Z" fill="#FAC636"/>
</g>
<g clip-path="url(#clip2)">
<path d="M80 128C80 123.6 83.6 120 88 120L80 120L80 128Z" fill="#FAC636"/>
</g>
<g clip-path="url(#clip3)">
<path d="M120 88C120 83.6 123.6 80 128 80L120 80L120 88Z" fill="#FAC636"/>
</g>
<g clip-path="url(#clip4)">
<path d="M160 48C160 43.6 163.6 40 168 40L160 40L160 48Z" fill="#FAC636"/>
</g>
<g clip-path="url(#clip5)">
<path d="M1480 212C1480 216.4 1476.4 220 1472 220L1480 220L1480 212Z" fill="#136FE8"/>
</g>
<path d="M620.729 84.5566H620.861L624.875 99H629.05L634.66 77.8623H630.075L626.735 93.1699H626.618L622.663 77.8623H618.928L614.973 93.1699H614.855L611.53 77.8623H606.945L612.541 99H616.716L620.729 84.5566ZM637.184 99H641.462V90.0352C641.462 87.9697 642.648 86.5488 644.67 86.5488C646.618 86.5488 647.614 87.7793 647.614 89.8008V99H651.891V88.8926C651.891 85.2598 649.899 83.0039 646.413 83.0039C644.025 83.0039 642.311 84.1172 641.476 86.0947H641.388V77.8623H637.184V99ZM659.689 99.249C661.652 99.249 663.6 98.2676 664.479 96.5977H664.567V99H668.697V88.2041C668.697 85.04 666.075 82.96 662.047 82.96C657.887 82.96 655.294 85.0547 655.133 88.1016H659.044C659.249 86.9443 660.26 86.1533 661.857 86.1533C663.468 86.1533 664.493 87.0029 664.493 88.4678V89.5078L660.538 89.7422C656.627 89.9766 654.43 91.6318 654.43 94.4883C654.43 97.3154 656.7 99.249 659.689 99.249ZM661.095 96.1582C659.645 96.1582 658.678 95.4258 658.678 94.2539C658.678 93.1406 659.586 92.4229 661.183 92.3057L664.493 92.1006V93.2432C664.493 94.9424 662.955 96.1582 661.095 96.1582ZM673.009 79.6787V83.2969H670.797V86.5195H673.009V94.7666C673.009 97.8281 674.444 99.0586 678.136 99.0586C679 99.0586 679.732 98.9854 680.172 98.8828V95.7334C679.908 95.7773 679.512 95.8066 679.132 95.8066C677.872 95.8066 677.286 95.2354 677.286 94.0342V86.5195H680.186V83.2969H677.286V79.6787H673.009ZM703.545 89.1416C703.354 85.582 700.659 82.96 696.411 82.96C691.709 82.96 688.706 86.0947 688.706 91.1338C688.706 96.2607 691.709 99.3369 696.44 99.3369C700.571 99.3369 703.34 96.9492 703.56 93.2432H699.575C699.312 94.957 698.198 95.9824 696.484 95.9824C694.36 95.9824 693.042 94.2246 693.042 91.1338C693.042 88.1016 694.36 86.3145 696.47 86.3145C698.228 86.3145 699.326 87.4863 699.575 89.1416H703.545ZM710.683 99.249C712.646 99.249 714.594 98.2676 715.473 96.5977H715.561V99H719.692V88.2041C719.692 85.04 717.07 82.96 713.042 82.96C708.881 82.96 706.289 85.0547 706.128 88.1016H710.039C710.244 86.9443 711.254 86.1533 712.851 86.1533C714.463 86.1533 715.488 87.0029 715.488 88.4678V89.5078L711.533 89.7422C707.622 89.9766 705.424 91.6318 705.424 94.4883C705.424 97.3154 707.695 99.249 710.683 99.249ZM712.089 96.1582C710.639 96.1582 709.672 95.4258 709.672 94.2539C709.672 93.1406 710.581 92.4229 712.177 92.3057L715.488 92.1006V93.2432C715.488 94.9424 713.95 96.1582 712.089 96.1582ZM722.861 99H727.138V89.9912C727.138 87.9551 728.354 86.5488 730.273 86.5488C732.192 86.5488 733.158 87.7207 733.158 89.7715V99H737.436V88.8779C737.436 85.2012 735.473 83.0039 731.987 83.0039C729.57 83.0039 727.914 84.1465 727.079 86.0947H726.991V83.2969H722.861V99ZM768.924 83.2969H764.705L762.318 94.9424H762.23L759.432 83.2969H755.33L752.547 94.9424H752.459L750.086 83.2969H745.78L749.954 99H754.452L757.279 87.8965H757.367L760.208 99H764.764L768.924 83.2969ZM781.16 94.1953C780.765 95.3965 779.563 96.1729 777.996 96.1729C775.813 96.1729 774.393 94.6348 774.393 92.3936V92.1299H785.218V90.8262C785.218 86.0508 782.332 82.96 777.762 82.96C773.118 82.96 770.188 86.2119 770.188 91.2217C770.188 96.2461 773.089 99.3369 777.923 99.3369C781.805 99.3369 784.617 97.2715 785.086 94.1953H781.16ZM777.806 86.124C779.71 86.124 781.014 87.501 781.102 89.5078H774.437C774.583 87.5449 775.931 86.124 777.806 86.124ZM794.279 99H798.557V90.0352C798.557 87.9697 799.743 86.5488 801.765 86.5488C803.713 86.5488 804.709 87.7793 804.709 89.8008V99H808.987V88.8926C808.987 85.2598 806.994 83.0039 803.508 83.0039C801.12 83.0039 799.406 84.1172 798.571 86.0947H798.484V77.8623H794.279V99ZM822.526 94.1953C822.131 95.3965 820.929 96.1729 819.362 96.1729C817.179 96.1729 815.759 94.6348 815.759 92.3936V92.1299H826.584V90.8262C826.584 86.0508 823.698 82.96 819.128 82.96C814.484 82.96 811.554 86.2119 811.554 91.2217C811.554 96.2461 814.455 99.3369 819.289 99.3369C823.171 99.3369 825.983 97.2715 826.452 94.1953H822.526ZM819.172 86.124C821.076 86.124 822.38 87.501 822.468 89.5078H815.803C815.949 87.5449 817.297 86.124 819.172 86.124ZM829.298 99H833.576V77.8623H829.298V99ZM846.031 83.0479C843.761 83.0479 842.018 84.1904 841.168 86.0361H841.08V83.2969H836.861V104.127H841.139V96.3633H841.227C842.062 98.1357 843.819 99.249 846.104 99.249C850.03 99.249 852.462 96.2021 852.462 91.1484C852.462 86.0801 850.016 83.0479 846.031 83.0479ZM844.596 95.8066C842.501 95.8066 841.124 93.9902 841.124 91.1484C841.124 88.3359 842.501 86.4756 844.596 86.4756C846.734 86.4756 848.082 88.3066 848.082 91.1484C848.082 94.0049 846.734 95.8066 844.596 95.8066ZM863.443 104.815C867.442 104.815 869.419 103.365 870.752 99.3369L876.157 83.2969H871.646L868.321 95.5723H868.233L864.893 83.2969H860.205L865.669 99C865.684 99.0732 865.523 99.6885 865.523 99.7617C865.23 101.007 864.453 101.505 862.901 101.505C862.739 101.505 861.963 101.49 861.817 101.461V104.771C861.963 104.801 863.281 104.815 863.443 104.815ZM884.907 99.3369C889.653 99.3369 892.685 96.3047 892.685 91.1338C892.685 86.0361 889.609 82.96 884.907 82.96C880.205 82.96 877.129 86.0508 877.129 91.1338C877.129 96.29 880.161 99.3369 884.907 99.3369ZM884.907 96.0703C882.798 96.0703 881.465 94.2979 881.465 91.1484C881.465 88.0283 882.827 86.2266 884.907 86.2266C886.987 86.2266 888.335 88.0283 888.335 91.1484C888.335 94.2979 887.002 96.0703 884.907 96.0703ZM909.799 83.2969H905.522V92.291C905.522 94.3711 904.335 95.7334 902.431 95.7334C900.541 95.7334 899.501 94.6201 899.501 92.5254V83.2969H895.224V93.4189C895.224 97.0811 897.48 99.293 900.878 99.293C903.251 99.293 904.804 98.1504 905.58 96.1729H905.668V99H909.799V83.2969ZM941.361 83.2969H937.142L934.754 94.9424H934.667L931.869 83.2969H927.767L924.984 94.9424H924.896L922.523 83.2969H918.216L922.391 99H926.888L929.715 87.8965H929.803L932.645 99H937.201L941.361 83.2969ZM945.628 81.1729C946.873 81.1729 947.855 80.1768 947.855 78.9756C947.855 77.7598 946.873 76.7783 945.628 76.7783C944.383 76.7783 943.402 77.7598 943.402 78.9756C943.402 80.1768 944.383 81.1729 945.628 81.1729ZM943.504 99H947.781V83.2969H943.504V99ZM952.18 79.6787V83.2969H949.969V86.5195H952.18V94.7666C952.18 97.8281 953.616 99.0586 957.307 99.0586C958.172 99.0586 958.904 98.9854 959.344 98.8828V95.7334C959.08 95.7773 958.684 95.8066 958.304 95.8066C957.044 95.8066 956.458 95.2354 956.458 94.0342V86.5195H959.358V83.2969H956.458V79.6787H952.18ZM962.204 99H966.482V90.0352C966.482 87.9697 967.668 86.5488 969.69 86.5488C971.638 86.5488 972.634 87.7793 972.634 89.8008V99H976.912V88.8926C976.912 85.2598 974.919 83.0039 971.433 83.0039C969.045 83.0039 967.331 84.1172 966.496 86.0947H966.409V77.8623H962.204V99ZM979.45 83.7949H983.42C983.508 82.1396 984.621 81.0703 986.306 81.0703C987.976 81.0703 989.089 82.0811 989.089 83.4727C989.089 84.8643 988.518 85.582 986.628 86.71C984.606 87.8965 983.801 89.2148 983.991 91.5146L984.021 92.3643H987.902V91.5879C987.902 90.1523 988.444 89.4346 990.393 88.3066C992.458 87.0908 993.527 85.5527 993.527 83.3408C993.527 80.001 990.759 77.6719 986.569 77.6719C982.072 77.6719 979.523 80.1914 979.45 83.7949ZM986.013 99.3662C987.346 99.3662 988.415 98.3555 988.415 97.0664C988.415 95.7773 987.346 94.7666 986.013 94.7666C984.694 94.7666 983.625 95.7773 983.625 97.0664C983.625 98.3555 984.694 99.3662 986.013 99.3662Z" fill="#A1CCF7"/>
</g>
<defs>
<clipPath id="clip0">
<rect width="1600" height="300" fill="white"/>
</clipPath>
<clipPath id="clip1">
<rect width="8" height="8" fill="white" transform="translate(40 168) rotate(-90)"/>
</clipPath>
<clipPath id="clip2">
<rect width="8" height="8" fill="white" transform="translate(80 128) rotate(-90)"/>
</clipPath>
<clipPath id="clip3">
<rect width="8" height="8" fill="white" transform="translate(120 88) rotate(-90)"/>
</clipPath>
<clipPath id="clip4">
<rect width="8" height="8" fill="white" transform="translate(160 48) rotate(-90)"/>
</clipPath>
<clipPath id="clip5">
<rect width="8" height="8" fill="white" transform="translate(1480 212) rotate(90)"/>
</clipPath>
</defs>
</svg>
