<svg width="1600" height="300" viewBox="0 0 1600 300" fill="none" xmlns="http://www.w3.org/2000/svg">
<g clip-path="url(#clip0)">
<rect width="1600" height="300" fill="white"/>
<rect width="1600" height="300" fill="#DEEEFC"/>
<path d="M944.777 275.186C939.349 269.984 934.857 265.498 930.906 261.541L930.905 261.539C915.824 246.463 908.949 239.59 890.255 233.514C874.675 228.449 859.973 227.14 848.172 226.09L848.168 226.089C842.223 225.563 837.088 225.107 833.028 224.268C821.875 221.963 812.837 217.595 811.629 217.002L805.351 205.505C805.823 204.131 808.205 196.787 806.556 193.436C805.35 190.98 803.037 188.911 800.687 188.178C799.053 187.668 797.455 187.798 796.069 188.566L795.939 188.665C795.674 188.957 789.574 195.843 788.382 202.149C788.217 202.995 788.061 203.73 787.905 204.392C786.948 208.66 786.632 210.107 791.857 219.624C797.654 230.19 810.095 239.977 810.805 240.535L810.835 240.559L816.401 244.359C813.922 244.109 808.576 242.925 800.352 237.802C788.813 230.626 781.624 221.258 781.178 220.677L781.157 220.65C781.105 220.573 775.376 213.168 773.348 210.616C772.235 209.225 771.827 206.624 771.393 203.858L771.388 203.828L771.385 203.811C771.053 201.698 770.709 199.51 770.02 197.457C768.376 192.544 762.256 184.589 758.089 184.456C755.584 184.375 752.643 185.73 750.784 187.84C749.567 189.212 748.228 191.545 748.752 194.843C749.734 201.069 754.785 217.766 755.001 218.465L755.038 218.558C755.328 219.102 762.252 231.817 764.603 235.408C765.44 236.688 766.732 238.09 768.07 239.391L766.259 238.233C766.165 238.156 756.817 230.081 752.886 223.655C750.018 218.969 748.036 213.056 746.443 208.306L746.435 208.281L746.426 208.256L746.426 208.254C745.819 206.444 745.247 204.737 744.711 203.357C743.785 200.977 741.425 198.812 738.24 197.41C734.7 195.861 730.876 195.602 728.005 196.738C722.003 199.084 724.965 209.279 725.106 209.72L730.073 225.068C727.898 225.573 725.915 226.832 724.496 228.688C720.976 233.284 725.509 241.984 725.676 242.287C725.746 242.492 733.138 263.16 743.663 276.312C752.464 287.301 764.746 293.947 781.752 303.149L782.44 303.521C785.903 305.397 789.488 307.338 793.315 309.462C803.452 315.098 810.759 318.35 817.414 320.133C826.301 322.515 834.009 322.261 845.699 321.521C856.05 320.856 867.432 319.23 877.469 317.796L877.471 317.795L877.472 317.795L877.475 317.795L877.477 317.795L877.48 317.794L877.481 317.794L877.541 317.785C887.111 316.416 895.379 315.235 899.444 315.403C907.457 315.749 922.556 332.384 922.706 332.558L923.445 331.887C922.814 331.19 907.918 314.764 899.482 314.409C895.328 314.228 887.017 315.417 877.402 316.796C867.357 318.235 855.978 319.865 845.636 320.521C825.41 321.82 817.217 321.602 793.807 308.59C789.724 306.326 785.929 304.264 782.258 302.276L782.238 302.265C765.34 293.123 753.13 286.517 744.455 275.675C734.392 263.109 727.21 243.538 726.638 241.98C726.618 241.925 726.606 241.892 726.602 241.883L726.594 241.867C726.38 241.446 722.237 233.3 725.308 229.289C726.883 227.237 729.208 225.976 731.683 225.821C734.303 225.664 736.883 226.738 738.945 228.854C740.96 230.916 742.982 235.153 745.112 239.648C747.86 245.426 750.702 251.395 754.213 254.52C759.189 258.938 762.455 261.315 763.56 262.097C760.843 265.862 760.074 270.74 761.522 275.269C763.08 280.117 766.924 283.777 772.072 285.311C776.433 286.615 780.426 287.747 784.058 288.72C794.789 291.595 802.369 293.057 807.064 293.155C815.01 293.328 824.105 295.433 831.998 298.936L832.408 298.021C824.405 294.468 815.175 292.326 807.095 292.149C800.897 292.021 789.542 289.465 772.362 284.344C767.53 282.904 763.932 279.486 762.475 274.955C761.072 270.572 761.879 265.819 764.654 262.266C770.232 255.085 786.102 259.224 786.276 259.27C786.296 259.276 786.517 259.332 786.902 259.429L786.906 259.43C790.273 260.282 806.075 264.282 809.243 265.279C813.06 266.489 828.431 270.441 833.193 270.672C837.895 270.897 847.344 270.871 857.759 268.165L857.511 267.198C847.22 269.865 837.895 269.892 833.244 269.671C828.564 269.442 813.338 265.528 809.55 264.326C806.242 263.286 789.813 259.124 786.94 258.397L786.939 258.396L786.937 258.396L786.537 258.295C785.871 258.116 770.394 254.093 764.18 261.29C763.142 260.567 759.892 258.205 754.89 253.77C751.537 250.79 748.608 244.643 746.033 239.222C743.862 234.654 741.8 230.333 739.67 228.158C737.395 225.83 734.543 224.651 731.629 224.823C731.45 224.837 731.267 224.861 731.085 224.884L726.079 209.411L726.074 209.392C725.936 208.898 723.356 199.622 728.389 197.659C731.027 196.626 734.561 196.88 737.86 198.323C740.759 199.596 742.984 201.611 743.807 203.716C744.29 204.948 744.8 206.457 745.345 208.07L745.523 208.596C747.132 213.406 749.142 219.391 752.074 224.172C756.092 230.736 765.267 238.65 765.704 239.026L783.305 250.306C783.451 250.376 797.628 257.084 802.876 259.06L803.231 258.119C798.022 256.154 783.872 249.464 783.79 249.421L774.008 243.156L773.997 243.148C773.703 242.919 767.731 238.29 765.486 234.858C763.364 231.621 757.281 220.491 756.144 218.409L755.984 218.118L755.926 217.922L755.925 217.92C755.283 215.778 750.683 200.428 749.781 194.674C749.321 191.755 750.503 189.701 751.573 188.487C753.223 186.62 755.907 185.372 758.094 185.441C761.459 185.555 767.445 192.771 769.11 197.762C769.762 199.696 770.097 201.806 770.422 203.859L770.44 203.967C770.893 206.873 771.327 209.619 772.605 211.225C774.634 213.777 780.355 221.17 780.4 221.233C780.476 221.337 787.848 231.149 799.862 238.623C811.947 246.147 817.937 245.392 818.185 245.355L819.456 245.168L811.466 239.714C811.336 239.617 798.61 229.736 792.783 219.106C787.742 209.908 788.01 208.675 788.935 204.565L788.971 204.404L788.971 204.402C789.111 203.771 789.265 203.08 789.41 202.29C790.498 196.567 796.051 190.062 796.677 189.35C797.813 188.743 799.078 188.658 800.436 189.073C802.509 189.722 804.636 191.638 805.708 193.819C807.31 197.075 804.417 205.245 804.384 205.329L804.307 205.536L810.946 217.699L811.083 217.767L811.093 217.772C811.449 217.951 820.96 222.732 832.865 225.187C836.882 226.021 841.889 226.47 847.686 226.991L848.168 227.034C859.92 228.082 874.536 229.387 889.992 234.417C908.441 240.416 915.27 247.238 930.212 262.164L930.252 262.204C934.212 266.164 938.704 270.649 944.14 275.864C945.276 276.952 946.286 277.931 947.218 278.836C952.779 284.23 955.598 286.964 966.073 294.195L966.644 293.375C956.099 286.161 953.332 283.475 947.738 278.047C946.839 277.174 945.867 276.23 944.777 275.186Z" fill="#23262A"/>
<path d="M838.683 79.5339C835.637 78.6555 832.06 74.6948 829.117 68.9473C827.729 66.246 826.508 63.1133 825.782 60.1442C822.807 56.4895 819.026 53.4059 814.51 51.2123C812.64 50.3076 810.719 49.5961 808.783 49.0566L800.305 36.7636C800.62 39.4154 801.12 44.1563 801.251 47.8771C790.917 47.4583 780.791 51.8677 774.091 59.9902C775.628 53.4459 779.939 48.5683 781.825 46.435L781.851 46.4058C782.19 46.0307 782.531 45.6459 782.677 45.447C782.547 45.2362 782.219 44.8377 781.898 44.4515L781.869 44.4161C780.863 43.1821 779.281 41.2434 777.968 38.6049C775.909 44.0475 772.743 53.1586 773.075 55.3594C773.2 56.128 772.753 56.9089 771.876 57.5127C770.154 58.6869 767.028 59.0709 764.373 57.5417C762.033 56.19 759.352 52.9454 759.932 45.1396C760.28 40.4396 761.355 36.1205 761.627 35.0651L756.765 28.6376C745.652 30.971 734.485 34.5115 731.715 39.5976C726.043 49.9837 729.707 61.9288 730.076 63.063C736.189 70.1154 745.776 80.7387 747.295 81.2907C747.871 81.4968 748.831 81.5057 750.054 81.502C753.212 81.4994 757.996 81.4974 764.217 84.7069C771.622 88.5234 773.027 94.6768 773.211 98.0079C773.447 102.305 771.854 106.589 769.425 108.195C768.608 108.732 766.115 108.302 762.145 107.238C759.827 106.617 757.017 105.782 753.749 104.802C749.784 103.605 746.048 102.48 743.761 102.012C736.34 100.5 730.037 97.8274 725.519 94.2875C720.984 90.7328 692.177 58.8402 690.661 56.5394C690.453 56.2351 688.815 54.8128 686.917 53.1653L686.902 53.153C677.082 44.6366 654.118 24.7203 650.931 9.19333C650.067 6.50809 643.592 2.08143 617.757 -3.46413L617.967 -4.44299C639.094 0.0894672 650.509 4.58711 651.901 8.93554C655.031 24.1852 678.678 44.6945 687.575 52.4099C690.094 54.5966 691.218 55.5809 691.493 55.9858C692.931 58.1519 721.882 90.1657 726.134 93.4998C730.532 96.9455 736.698 99.5501 743.952 101.028C746.28 101.497 750.045 102.63 754.03 103.832C759.537 105.494 767.874 107.997 768.855 107.349C770.702 106.135 772.441 102.543 772.194 98.0563C772.023 94.9461 770.701 89.1774 763.741 85.594C757.747 82.499 753.113 82.4945 750.05 82.4914L750.037 82.4914C748.672 82.4879 747.68 82.4809 746.942 82.221C744.678 81.397 730.814 65.4453 729.241 63.6262L729.149 63.467C729.101 63.3401 724.691 50.3563 730.821 39.1096C736.983 27.8197 780.027 24.0417 781.859 23.8906L781.963 23.8875L782.06 23.9134L782.18 23.9527C784.312 24.6488 807.801 32.317 810.083 34.352L810.176 34.4288L810.22 34.5338C810.792 35.9685 814.297 39.0586 817.732 42.086L817.916 42.2484C823.612 47.2636 827.074 50.417 826.493 52.0422C825.282 55.4032 826.709 62.0178 830.025 68.4969C832.806 73.9214 836.231 77.7898 838.981 78.5783C841.486 79.3118 843.618 78.9305 845.08 77.4899C846.989 75.6203 847.514 72.2307 846.487 68.4148C845.501 64.7548 845.79 60.0805 846.046 55.9563C846.304 51.9048 846.543 48.0763 845.55 45.988C843.507 41.6723 831.978 24.0376 827.418 20.3102C822.833 16.5557 820.612 15.1842 817.068 13.3441C814.776 12.1606 807.862 8.86908 800.545 5.38638L799.393 4.83747C793.015 1.79823 786.617 -1.25105 783.118 -2.98919C775.888 -6.59198 770.749 -5.65896 770.446 -5.60403C770.438 -5.60262 770.432 -5.60162 770.432 -5.60162L770.218 -6.58035L770.221 -6.58091C770.478 -6.63365 775.83 -7.73067 783.565 -3.88404C787.265 -2.04376 794.234 1.27297 800.975 4.4767C801.725 4.83407 802.47 5.18927 803.207 5.54028C807.152 7.41939 810.844 9.17841 813.594 10.5082C814.032 9.21787 815.033 5.6762 813.576 3.46371C811.998 1.08424 800.927 -6.70657 791.151 -13.5708C783.302 -19.0903 776.525 -23.8568 775.008 -25.5367C773.453 -27.2681 772.152 -28.9419 770.782 -30.7066L770.716 -30.7917C769.065 -32.9108 767.361 -35.098 764.917 -37.7961C760.432 -42.7351 749.513 -51.1686 744.144 -52.2656C721.398 -56.9017 702.106 -53.0162 688.014 -50.1781L687.978 -50.171C679.333 -48.4292 673.085 -47.1735 669.143 -48.4575C663.705 -50.2252 634.789 -59.2258 619.944 -63.5556L596.733 -70.5516L597.011 -71.5124L620.242 -64.5111C635.099 -60.1884 664.022 -51.1756 669.469 -49.4053C673.163 -48.1983 679.62 -49.5014 687.796 -51.1516L687.831 -51.1587C702.01 -54.0147 721.413 -57.9227 744.355 -53.2444C749.886 -52.135 761.105 -43.5073 765.668 -38.4748C768.121 -35.7668 769.832 -33.5659 771.481 -31.4465L771.578 -31.3214C772.931 -29.5716 774.216 -27.9126 775.757 -26.2057C777.192 -24.6097 784.257 -19.6419 791.732 -14.3882L791.993 -14.2047C802.235 -7.00304 812.752 0.392807 814.417 2.91268C816.184 5.59126 814.981 9.61709 814.501 10.948C815.819 11.5912 816.87 12.111 817.524 12.4519C821.131 14.3294 823.386 15.7305 828.04 19.5347C832.796 23.4182 844.31 41.0697 846.442 45.5543C847.538 47.8771 847.297 51.8294 847.035 56.0141L847.035 56.0172C846.77 60.2519 846.495 64.639 847.437 68.1518C848.556 72.3234 847.932 76.0801 845.769 78.2026C844.055 79.8863 841.527 80.358 838.683 79.5339Z" fill="#23262A"/>
<path d="M847.156 104.591L839.805 102.621L839.547 103.587L846.897 105.557L847.156 104.591Z" fill="#23262A"/>
<path d="M798.384 126.535L799.35 126.794L797.381 134.144L796.415 133.886L798.384 126.535Z" fill="#23262A"/>
<path d="M824.584 123.086L823.718 123.586L827.523 130.176L828.389 129.676L824.584 123.086Z" fill="#23262A"/>
<path d="M829.117 68.9468C827.738 66.2481 826.508 63.1128 825.779 60.1121C822.801 56.4671 819.023 53.3739 814.507 51.1803C797.881 43.1019 777.855 50.0349 769.776 66.6606C766.701 73.0005 765.824 79.8263 766.814 86.2928C771.954 90.0615 773.051 95.0866 773.206 97.9855C773.262 99.0877 773.202 100.2 773.034 101.252C776.139 105.428 780.247 108.952 785.257 111.391C801.882 119.47 821.909 112.537 829.987 95.911C833.329 89.0419 834.095 81.586 832.683 74.6442C831.434 73.0465 830.23 71.1293 829.117 68.9468Z" fill="#136FE8"/>
<g clip-path="url(#clip1)">
<path d="M40 168C40 163.6 43.6 160 48 160L40 160L40 168Z" fill="#FAC636"/>
</g>
<g clip-path="url(#clip2)">
<path d="M80 128C80 123.6 83.6 120 88 120L80 120L80 128Z" fill="#FAC636"/>
</g>
<g clip-path="url(#clip3)">
<path d="M120 88C120 83.6 123.6 80 128 80L120 80L120 88Z" fill="#FAC636"/>
</g>
<g clip-path="url(#clip4)">
<path d="M160 48C160 43.6 163.6 40 168 40L160 40L160 48Z" fill="#FAC636"/>
</g>
</g>
<defs>
<clipPath id="clip0">
<rect width="1600" height="300" fill="white"/>
</clipPath>
<clipPath id="clip1">
<rect width="8" height="8" fill="white" transform="translate(40 168) rotate(-90)"/>
</clipPath>
<clipPath id="clip2">
<rect width="8" height="8" fill="white" transform="translate(80 128) rotate(-90)"/>
</clipPath>
<clipPath id="clip3">
<rect width="8" height="8" fill="white" transform="translate(120 88) rotate(-90)"/>
</clipPath>
<clipPath id="clip4">
<rect width="8" height="8" fill="white" transform="translate(160 48) rotate(-90)"/>
</clipPath>
</defs>
</svg>
