<svg width="1600" height="300" viewBox="0 0 1600 300" fill="none" xmlns="http://www.w3.org/2000/svg">
<g clip-path="url(#clip0)">
<rect width="1600" height="300" fill="white"/>
<rect width="1600" height="300" fill="#DEEEFC"/>
<rect x="480" y="130" width="640" height="40" rx="20" fill="white"/>
<circle cx="1600" r="390" fill="#FAC636"/>
<circle cx="1600" r="390" fill="url(#paint0_radial)"/>
<rect x="1400" y="260" width="40" height="40" fill="#136FE8"/>
<path d="M1440 228C1440 223.582 1443.58 220 1448 220H1480V260H1440V228Z" fill="#136FE8"/>
<rect x="1480" y="220" width="40" height="40" fill="#136FE8"/>
<rect x="1520" y="220" width="40" height="40" fill="#136FE8"/>
<rect x="1560" y="220" width="40" height="40" fill="#136FE8"/>
<rect x="1480" y="260" width="40" height="40" fill="#136FE8"/>
<rect x="1520" y="260" width="40" height="40" fill="#136FE8"/>
<rect x="1560" y="260" width="40" height="40" fill="#136FE8"/>
<path d="M1480 188C1480 183.582 1483.58 180 1488 180H1520V220H1480V188Z" fill="#136FE8"/>
<rect x="1520" y="180" width="40" height="40" fill="#136FE8"/>
<rect x="1560" y="180" width="40" height="40" fill="#136FE8"/>
<rect x="1440" y="260" width="40" height="40" fill="#136FE8"/>
<circle cy="300" r="305" fill="url(#paint1_radial)"/>
<path d="M200 32C200 36.4183 196.418 40 192 40H160V0H200V32Z" fill="#FAC636"/>
<path d="M160 72C160 76.4183 156.418 80 152 80H120V40H160V72Z" fill="#FAC636"/>
<rect x="120" y="80" width="40" height="40" transform="rotate(-180 120 80)" fill="#FAC636"/>
<rect x="80" y="80" width="40" height="40" transform="rotate(-180 80 80)" fill="#FAC636"/>
<rect x="40" y="80" width="40" height="40" transform="rotate(-180 40 80)" fill="#FAC636"/>
<rect x="120" y="40" width="40" height="40" transform="rotate(-180 120 40)" fill="#FAC636"/>
<rect x="80" y="40" width="40" height="40" transform="rotate(-180 80 40)" fill="#FAC636"/>
<rect x="40" y="40" width="40" height="40" transform="rotate(-180 40 40)" fill="#FAC636"/>
<path d="M120 112C120 116.418 116.418 120 112 120H80V80H120V112Z" fill="#FAC636"/>
<rect x="80" y="120" width="40" height="40" transform="rotate(-180 80 120)" fill="#FAC636"/>
<path d="M80 152C80 156.418 76.4183 160 72 160H40V120H80V152Z" fill="#FAC636"/>
<path d="M40 192C40 196.418 36.4183 200 32 200H0V160H40V192Z" fill="#FAC636"/>
<rect x="40" y="120" width="40" height="40" transform="rotate(-180 40 120)" fill="#FAC636"/>
<rect x="40" y="160" width="40" height="40" transform="rotate(-180 40 160)" fill="#FAC636"/>
<rect x="160" y="40" width="40" height="40" transform="rotate(-180 160 40)" fill="#FAC636"/>
<path fill-rule="evenodd" clip-rule="evenodd" d="M310.017 86.4403L367.264 86.4464V131.442C367.264 138.265 361.733 143.795 354.911 143.795H333.538H310.017V86.4403Z" fill="#FFAE74"/>
<path fill-rule="evenodd" clip-rule="evenodd" d="M310.017 149.039V143.795H333.538V163.063H324.043L310.017 149.039Z" fill="#FE924A"/>
<path fill-rule="evenodd" clip-rule="evenodd" d="M390.926 266.315L385.517 246.117H404.588V255.577L423.946 312.812H453.888L403.024 361.807C401.226 366.734 398.084 370.775 394.178 373.702V290.96C394.177 282.637 393.085 274.351 390.926 266.315" fill="#FFAE74"/>
<path fill-rule="evenodd" clip-rule="evenodd" d="M310.02 149.039V163.063C310.02 173.696 301.399 182.316 290.766 182.316H290.713H281.826H269.589H261.241V84.4025C261.241 59.8802 281.121 40 305.644 40H305.663H326.035C348.817 40 367.287 58.4689 367.287 81.2533V86.437H310.02V86.44V143.795V149.039Z" fill="black"/>
<path fill-rule="evenodd" clip-rule="evenodd" d="M186.404 246.118H223.463H240.387L240.38 246.151L223.381 309.629V309.63L212.185 351.448V400H168.77L160.399 352.522C160.136 351.023 160.003 349.503 160 347.981C159.994 345.661 160.297 343.348 160.9 341.109L186.404 246.118Z" fill="#FFAE74"/>
<path fill-rule="evenodd" clip-rule="evenodd" d="M240.379 246.152L240.388 246.118H223.462H186.403L198.317 201.645C201.413 190.113 211.942 182.152 223.883 182.317H269.585H269.586H281.823H290.71H290.763C301.396 182.317 310.016 173.696 310.016 163.061H324.044H333.537H333.568V170.047C333.568 176.823 339.062 182.317 345.839 182.317H378.562C392.965 182.317 404.641 193.993 404.641 208.394V246.118H404.589H385.517L390.926 266.315C393.084 274.353 394.178 282.637 394.179 290.96V373.702V380.336C394.179 389.214 386.981 396.411 378.103 396.412H377.125H377.107H340.833H272.723H239.376C239.183 396.412 238.997 396.39 238.806 396.382C230.195 396.086 223.296 389.032 223.29 380.347V380.305L223.382 309.63L240.379 246.152Z" fill="#E84D26"/>
<g style="mix-blend-mode:multiply">
<path fill-rule="evenodd" clip-rule="evenodd" d="M240.379 246.152C250.79 256.58 256.638 270.712 256.637 285.448V380.305C256.62 389.184 263.803 396.394 272.681 396.411C272.694 396.412 272.71 396.412 272.723 396.412H239.376C239.183 396.412 238.997 396.39 238.806 396.382C230.195 396.086 223.296 389.032 223.29 380.347V380.305L223.382 309.63L240.379 246.152Z" fill="#E84D26"/>
</g>
<path fill-rule="evenodd" clip-rule="evenodd" d="M324.044 163.062H310.017V149.038L324.044 163.062Z" fill="#FFAE74"/>
<path fill-rule="evenodd" clip-rule="evenodd" d="M1244.46 226.469C1244.54 251.885 1265.16 272.462 1290.6 272.462C1316.07 272.453 1336.71 251.806 1336.72 226.335H1336.73V299.997H1244.45V226.469H1244.46Z" fill="white"/>
<path fill-rule="evenodd" clip-rule="evenodd" d="M1199.36 228.013C1202.06 227.507 1204.55 226.183 1206.47 224.223L1229.85 200.84C1232.46 198.229 1235.99 196.759 1239.68 196.762H1244.45V226.317V226.354L1244.45 226.351C1244.45 226.39 1244.45 226.43 1244.45 226.469H1244.45V299.997H1120C1130.65 262.94 1161.33 234.994 1199.36 228.013" fill="#1E3877"/>
<path fill-rule="evenodd" clip-rule="evenodd" d="M1336.72 196.631H1341.6C1345.29 196.631 1348.83 198.095 1351.45 200.706L1373 222.26C1375.61 224.862 1379.14 226.323 1382.83 226.32C1428.26 226.335 1468.07 256.475 1480.54 300H1336.72V226.338V196.631Z" fill="#1E3877"/>
<path fill-rule="evenodd" clip-rule="evenodd" d="M1290.6 272.465C1265.16 272.465 1244.54 251.885 1244.46 226.472C1244.46 226.432 1244.46 226.393 1244.46 226.353L1292.16 178.646H1244.45H1216.68H1216.66C1205.54 178.637 1196.54 169.619 1196.55 158.502V92.5795C1196.54 83.3578 1197.8 74.2182 1200.19 65.3738V65.4225H1249.58H1249.6C1255.87 65.4225 1260.94 70.499 1260.94 76.7625C1260.94 83.026 1266.02 88.1087 1272.28 88.1178C1278.55 88.1178 1283.64 93.2035 1283.64 99.4731V110.813L1297.56 110.847V105.664C1297.56 105.253 1297.58 104.839 1297.62 104.431C1298.27 97.9787 1304.02 93.2735 1310.48 93.9217C1316.61 94.6917 1321.19 99.9631 1321.08 106.15V115.996C1321.08 124.643 1328.08 131.652 1336.73 131.661V226.32V226.338C1336.72 251.809 1316.07 272.456 1290.6 272.465" fill="#FFAE74"/>
<path fill-rule="evenodd" clip-rule="evenodd" d="M1244.46 226.348H1244.45V226.315V196.76V178.645H1292.16L1244.46 226.348Z" fill="#FE924A"/>
<path fill-rule="evenodd" clip-rule="evenodd" d="M1321.08 115.998V106.152C1321.18 99.9647 1316.61 94.6934 1310.47 93.9234C1304.02 93.2751 1298.26 97.9803 1297.62 104.433C1297.57 104.84 1297.56 105.254 1297.56 105.665V110.848L1283.63 110.815V99.4747C1283.63 93.2051 1278.55 88.1194 1272.28 88.1194C1266.01 88.1103 1260.94 83.0277 1260.94 76.7642C1260.94 70.5006 1255.86 65.4241 1249.6 65.4241H1249.58H1200.18V65.3754L1200.37 48.1462C1200.5 32.5635 1213.17 20 1228.75 20H1275.25C1309.21 20 1336.74 47.5314 1336.74 81.4937V131.666C1336.74 131.666 1336.73 131.663 1336.72 131.663C1328.08 131.657 1321.08 124.644 1321.08 115.998" fill="black"/>
<path d="M629.141 75.344L624.017 95H618.221L615.085 82.064L611.837 95H606.041L601.057 75.344H606.181L609.009 89.652L612.509 75.344H617.773L621.133 89.652L623.989 75.344H629.141ZM641.147 79.208C642.939 79.208 644.376 79.8053 645.459 81C646.541 82.176 647.083 83.8 647.083 85.872V95H642.323V86.516C642.323 85.4707 642.052 84.6587 641.511 84.08C640.969 83.5013 640.241 83.212 639.327 83.212C638.412 83.212 637.684 83.5013 637.143 84.08C636.601 84.6587 636.331 85.4707 636.331 86.516V95H631.543V74.28H636.331V81.476C636.816 80.7853 637.479 80.2347 638.319 79.824C639.159 79.4133 640.101 79.208 641.147 79.208ZM649.458 87.16C649.458 85.5547 649.756 84.1453 650.354 82.932C650.97 81.7187 651.8 80.7853 652.846 80.132C653.891 79.4787 655.058 79.152 656.346 79.152C657.447 79.152 658.408 79.376 659.23 79.824C660.07 80.272 660.714 80.86 661.162 81.588V79.376H665.95V95H661.162V92.788C660.695 93.516 660.042 94.104 659.202 94.552C658.38 95 657.419 95.224 656.318 95.224C655.048 95.224 653.891 94.8973 652.846 94.244C651.8 93.572 650.97 92.6293 650.354 91.416C649.756 90.184 649.458 88.7653 649.458 87.16ZM661.162 87.188C661.162 85.9933 660.826 85.0507 660.154 84.36C659.5 83.6693 658.698 83.324 657.746 83.324C656.794 83.324 655.982 83.6693 655.31 84.36C654.656 85.032 654.33 85.9653 654.33 87.16C654.33 88.3547 654.656 89.3067 655.31 90.016C655.982 90.7067 656.794 91.052 657.746 91.052C658.698 91.052 659.5 90.7067 660.154 90.016C660.826 89.3253 661.162 88.3827 661.162 87.188ZM678.122 90.94V95H675.686C673.95 95 672.596 94.58 671.626 93.74C670.655 92.8813 670.17 91.4907 670.17 89.568V83.352H668.266V79.376H670.17V75.568H674.958V79.376H678.094V83.352H674.958V89.624C674.958 90.0907 675.07 90.4267 675.294 90.632C675.518 90.8373 675.891 90.94 676.414 90.94H678.122ZM685.77 87.188C685.77 85.564 686.097 84.1453 686.75 82.932C687.422 81.7187 688.346 80.7853 689.522 80.132C690.717 79.4787 692.08 79.152 693.61 79.152C695.57 79.152 697.204 79.6653 698.51 80.692C699.836 81.7187 700.704 83.1653 701.114 85.032H696.018C695.589 83.8373 694.758 83.24 693.526 83.24C692.649 83.24 691.949 83.5853 691.426 84.276C690.904 84.948 690.642 85.9187 690.642 87.188C690.642 88.4573 690.904 89.4373 691.426 90.128C691.949 90.8 692.649 91.136 693.526 91.136C694.758 91.136 695.589 90.5387 696.018 89.344H701.114C700.704 91.1733 699.836 92.6107 698.51 93.656C697.185 94.7013 695.552 95.224 693.61 95.224C692.08 95.224 690.717 94.8973 689.522 94.244C688.346 93.5907 687.422 92.6573 686.75 91.444C686.097 90.2307 685.77 88.812 685.77 87.188ZM702.723 87.16C702.723 85.5547 703.022 84.1453 703.619 82.932C704.235 81.7187 705.066 80.7853 706.111 80.132C707.157 79.4787 708.323 79.152 709.611 79.152C710.713 79.152 711.674 79.376 712.495 79.824C713.335 80.272 713.979 80.86 714.427 81.588V79.376H719.215V95H714.427V92.788C713.961 93.516 713.307 94.104 712.467 94.552C711.646 95 710.685 95.224 709.583 95.224C708.314 95.224 707.157 94.8973 706.111 94.244C705.066 93.572 704.235 92.6293 703.619 91.416C703.022 90.184 702.723 88.7653 702.723 87.16ZM714.427 87.188C714.427 85.9933 714.091 85.0507 713.419 84.36C712.766 83.6693 711.963 83.324 711.011 83.324C710.059 83.324 709.247 83.6693 708.575 84.36C707.922 85.032 707.595 85.9653 707.595 87.16C707.595 88.3547 707.922 89.3067 708.575 90.016C709.247 90.7067 710.059 91.052 711.011 91.052C711.963 91.052 712.766 90.7067 713.419 90.016C714.091 89.3253 714.427 88.3827 714.427 87.188ZM732.199 79.208C734.029 79.208 735.485 79.8053 736.567 81C737.669 82.176 738.219 83.8 738.219 85.872V95H733.459V86.516C733.459 85.4707 733.189 84.6587 732.647 84.08C732.106 83.5013 731.378 83.212 730.463 83.212C729.549 83.212 728.821 83.5013 728.279 84.08C727.738 84.6587 727.467 85.4707 727.467 86.516V95H722.679V79.376H727.467V81.448C727.953 80.7573 728.606 80.216 729.427 79.824C730.249 79.4133 731.173 79.208 732.199 79.208ZM769.908 79.376L765.68 95H760.388L757.924 84.864L755.376 95H750.112L745.856 79.376H750.644L752.856 90.548L755.488 79.376H760.556L763.216 90.492L765.4 79.376H769.908ZM786.462 86.936C786.462 87.384 786.434 87.8507 786.378 88.336H775.542C775.617 89.3067 775.925 90.0533 776.466 90.576C777.026 91.08 777.707 91.332 778.51 91.332C779.705 91.332 780.535 90.828 781.002 89.82H786.098C785.837 90.8467 785.361 91.7707 784.67 92.592C783.998 93.4133 783.149 94.0573 782.122 94.524C781.095 94.9907 779.947 95.224 778.678 95.224C777.147 95.224 775.785 94.8973 774.59 94.244C773.395 93.5907 772.462 92.6573 771.79 91.444C771.118 90.2307 770.782 88.812 770.782 87.188C770.782 85.564 771.109 84.1453 771.762 82.932C772.434 81.7187 773.367 80.7853 774.562 80.132C775.757 79.4787 777.129 79.152 778.678 79.152C780.19 79.152 781.534 79.4693 782.71 80.104C783.886 80.7387 784.801 81.644 785.454 82.82C786.126 83.996 786.462 85.368 786.462 86.936ZM781.562 85.676C781.562 84.8547 781.282 84.2013 780.722 83.716C780.162 83.2307 779.462 82.988 778.622 82.988C777.819 82.988 777.138 83.2213 776.578 83.688C776.037 84.1547 775.701 84.8173 775.57 85.676H781.562ZM804.526 79.208C806.318 79.208 807.755 79.8053 808.838 81C809.92 82.176 810.462 83.8 810.462 85.872V95H805.702V86.516C805.702 85.4707 805.431 84.6587 804.89 84.08C804.348 83.5013 803.62 83.212 802.706 83.212C801.791 83.212 801.063 83.5013 800.522 84.08C799.98 84.6587 799.71 85.4707 799.71 86.516V95H794.922V74.28H799.71V81.476C800.195 80.7853 800.858 80.2347 801.698 79.824C802.538 79.4133 803.48 79.208 804.526 79.208ZM828.517 86.936C828.517 87.384 828.489 87.8507 828.433 88.336H817.597C817.671 89.3067 817.979 90.0533 818.521 90.576C819.081 91.08 819.762 91.332 820.565 91.332C821.759 91.332 822.59 90.828 823.057 89.82H828.153C827.891 90.8467 827.415 91.7707 826.725 92.592C826.053 93.4133 825.203 94.0573 824.177 94.524C823.15 94.9907 822.002 95.224 820.733 95.224C819.202 95.224 817.839 94.8973 816.645 94.244C815.45 93.5907 814.517 92.6573 813.845 91.444C813.173 90.2307 812.837 88.812 812.837 87.188C812.837 85.564 813.163 84.1453 813.817 82.932C814.489 81.7187 815.422 80.7853 816.617 80.132C817.811 79.4787 819.183 79.152 820.733 79.152C822.245 79.152 823.589 79.4693 824.765 80.104C825.941 80.7387 826.855 81.644 827.509 82.82C828.181 83.996 828.517 85.368 828.517 86.936ZM823.617 85.676C823.617 84.8547 823.337 84.2013 822.777 83.716C822.217 83.2307 821.517 82.988 820.677 82.988C819.874 82.988 819.193 83.2213 818.633 83.688C818.091 84.1547 817.755 84.8173 817.625 85.676H823.617ZM835.831 74.28V95H831.043V74.28H835.831ZM844.088 81.588C844.555 80.86 845.199 80.272 846.02 79.824C846.842 79.376 847.803 79.152 848.904 79.152C850.192 79.152 851.359 79.4787 852.404 80.132C853.45 80.7853 854.271 81.7187 854.868 82.932C855.484 84.1453 855.792 85.5547 855.792 87.16C855.792 88.7653 855.484 90.184 854.868 91.416C854.271 92.6293 853.45 93.572 852.404 94.244C851.359 94.8973 850.192 95.224 848.904 95.224C847.822 95.224 846.86 95 846.02 94.552C845.199 94.104 844.555 93.5253 844.088 92.816V102.448H839.3V79.376H844.088V81.588ZM850.92 87.16C850.92 85.9653 850.584 85.032 849.912 84.36C849.259 83.6693 848.447 83.324 847.476 83.324C846.524 83.324 845.712 83.6693 845.04 84.36C844.387 85.0507 844.06 85.9933 844.06 87.188C844.06 88.3827 844.387 89.3253 845.04 90.016C845.712 90.7067 846.524 91.052 847.476 91.052C848.428 91.052 849.24 90.7067 849.912 90.016C850.584 89.3067 850.92 88.3547 850.92 87.16ZM880.198 79.376L870.398 102.42H865.246L868.83 94.468L862.474 79.376H867.822L871.434 89.148L875.018 79.376H880.198ZM889.041 95.224C887.511 95.224 886.129 94.8973 884.897 94.244C883.684 93.5907 882.723 92.6573 882.013 91.444C881.323 90.2307 880.977 88.812 880.977 87.188C880.977 85.5827 881.332 84.1733 882.041 82.96C882.751 81.728 883.721 80.7853 884.953 80.132C886.185 79.4787 887.567 79.152 889.097 79.152C890.628 79.152 892.009 79.4787 893.241 80.132C894.473 80.7853 895.444 81.728 896.153 82.96C896.863 84.1733 897.217 85.5827 897.217 87.188C897.217 88.7933 896.853 90.212 896.125 91.444C895.416 92.6573 894.436 93.5907 893.185 94.244C891.953 94.8973 890.572 95.224 889.041 95.224ZM889.041 91.08C889.956 91.08 890.731 90.744 891.365 90.072C892.019 89.4 892.345 88.4387 892.345 87.188C892.345 85.9373 892.028 84.976 891.393 84.304C890.777 83.632 890.012 83.296 889.097 83.296C888.164 83.296 887.389 83.632 886.773 84.304C886.157 84.9573 885.849 85.9187 885.849 87.188C885.849 88.4387 886.148 89.4 886.745 90.072C887.361 90.744 888.127 91.08 889.041 91.08ZM915.185 79.376V95H910.397V92.872C909.912 93.5627 909.249 94.1227 908.409 94.552C907.588 94.9627 906.673 95.168 905.665 95.168C904.471 95.168 903.416 94.9067 902.501 94.384C901.587 93.8427 900.877 93.068 900.373 92.06C899.869 91.052 899.617 89.8667 899.617 88.504V79.376H904.377V87.86C904.377 88.9053 904.648 89.7173 905.189 90.296C905.731 90.8747 906.459 91.164 907.373 91.164C908.307 91.164 909.044 90.8747 909.585 90.296C910.127 89.7173 910.397 88.9053 910.397 87.86V79.376H915.185ZM946.986 79.376L942.758 95H937.466L935.002 84.864L932.454 95H927.19L922.934 79.376H927.722L929.934 90.548L932.566 79.376H937.634L940.294 90.492L942.478 79.376H946.986ZM951.22 77.752C950.38 77.752 949.69 77.5093 949.148 77.024C948.626 76.52 948.364 75.904 948.364 75.176C948.364 74.4293 948.626 73.8133 949.148 73.328C949.69 72.824 950.38 72.572 951.22 72.572C952.042 72.572 952.714 72.824 953.236 73.328C953.778 73.8133 954.048 74.4293 954.048 75.176C954.048 75.904 953.778 76.52 953.236 77.024C952.714 77.5093 952.042 77.752 951.22 77.752ZM953.6 79.376V95H948.812V79.376H953.6ZM965.778 90.94V95H963.342C961.606 95 960.253 94.58 959.282 93.74C958.311 92.8813 957.826 91.4907 957.826 89.568V83.352H955.922V79.376H957.826V75.568H962.614V79.376H965.75V83.352H962.614V89.624C962.614 90.0907 962.726 90.4267 962.95 90.632C963.174 90.8373 963.547 90.94 964.07 90.94H965.778ZM978.049 79.208C979.841 79.208 981.278 79.8053 982.361 81C983.444 82.176 983.985 83.8 983.985 85.872V95H979.225V86.516C979.225 85.4707 978.954 84.6587 978.413 84.08C977.872 83.5013 977.144 83.212 976.229 83.212C975.314 83.212 974.586 83.5013 974.045 84.08C973.504 84.6587 973.233 85.4707 973.233 86.516V95H968.445V74.28H973.233V81.476C973.718 80.7853 974.381 80.2347 975.221 79.824C976.061 79.4133 977.004 79.208 978.049 79.208ZM993.052 74.252C995.05 74.252 996.646 74.7747 997.84 75.82C999.054 76.8653 999.66 78.34 999.66 80.244C999.66 81.9987 999.082 83.3707 997.924 84.36C996.786 85.3307 995.274 85.8253 993.388 85.844L993.248 87.944H989.048L988.908 82.736H990.588C992.026 82.736 993.118 82.5587 993.864 82.204C994.63 81.8493 995.012 81.2053 995.012 80.272C995.012 79.6187 994.835 79.1053 994.48 78.732C994.126 78.3587 993.631 78.172 992.996 78.172C992.324 78.172 991.802 78.368 991.428 78.76C991.055 79.1333 990.868 79.6467 990.868 80.3H986.36C986.323 79.1613 986.556 78.1347 987.06 77.22C987.583 76.3053 988.348 75.5867 989.356 75.064C990.383 74.5227 991.615 74.252 993.052 74.252ZM991.204 95.224C990.364 95.224 989.674 94.9813 989.132 94.496C988.61 93.992 988.348 93.376 988.348 92.648C988.348 91.9013 988.61 91.276 989.132 90.772C989.674 90.268 990.364 90.016 991.204 90.016C992.026 90.016 992.698 90.268 993.22 90.772C993.762 91.276 994.032 91.9013 994.032 92.648C994.032 93.376 993.762 93.992 993.22 94.496C992.698 94.9813 992.026 95.224 991.204 95.224Z" fill="#A1CCF7"/>
<g clip-path="url(#clip1)">
<path d="M40 168C40 163.6 43.6 160 48 160L40 160L40 168Z" fill="#FAC636"/>
</g>
<g clip-path="url(#clip2)">
<path d="M80 128C80 123.6 83.6 120 88 120L80 120L80 128Z" fill="#FAC636"/>
</g>
<g clip-path="url(#clip3)">
<path d="M120 88C120 83.6 123.6 80 128 80L120 80L120 88Z" fill="#FAC636"/>
</g>
<g clip-path="url(#clip4)">
<path d="M160 48C160 43.6 163.6 40 168 40L160 40L160 48Z" fill="#FAC636"/>
</g>
<g clip-path="url(#clip5)">
<path d="M1480 212C1480 216.4 1476.4 220 1472 220L1480 220L1480 212Z" fill="#136FE8"/>
</g>
</g>
<defs>
<radialGradient id="paint0_radial" cx="0" cy="0" r="1" gradientUnits="userSpaceOnUse" gradientTransform="translate(1600) rotate(90) scale(390)">
<stop stop-color="#F89A02"/>
<stop offset="1" stop-color="#FAC636"/>
</radialGradient>
<radialGradient id="paint1_radial" cx="0" cy="0" r="1" gradientUnits="userSpaceOnUse" gradientTransform="translate(0 300) rotate(90) scale(305)">
<stop stop-color="#165BC9"/>
<stop offset="1" stop-color="#136FE8"/>
</radialGradient>
<clipPath id="clip0">
<rect width="1600" height="300" fill="white"/>
</clipPath>
<clipPath id="clip1">
<rect width="8" height="8" fill="white" transform="translate(40 168) rotate(-90)"/>
</clipPath>
<clipPath id="clip2">
<rect width="8" height="8" fill="white" transform="translate(80 128) rotate(-90)"/>
</clipPath>
<clipPath id="clip3">
<rect width="8" height="8" fill="white" transform="translate(120 88) rotate(-90)"/>
</clipPath>
<clipPath id="clip4">
<rect width="8" height="8" fill="white" transform="translate(160 48) rotate(-90)"/>
</clipPath>
<clipPath id="clip5">
<rect width="8" height="8" fill="white" transform="translate(1480 212) rotate(90)"/>
</clipPath>
</defs>
</svg>
