<svg width="1600" height="300" viewBox="0 0 1600 300" fill="none" xmlns="http://www.w3.org/2000/svg">
<g clip-path="url(#clip0)">
<rect width="1600" height="300" fill="white"/>
<rect width="1600" height="300" fill="#DEEEFC"/>
<rect x="480" y="130" width="640" height="40" rx="20" fill="white"/>
<circle cx="1600" r="390" fill="#FAC636"/>
<rect x="1400" y="260" width="40" height="40" fill="#136FE8"/>
<path d="M1440 228C1440 223.582 1443.58 220 1448 220H1480V260H1440V228Z" fill="#136FE8"/>
<rect x="1480" y="220" width="40" height="40" fill="#136FE8"/>
<rect x="1520" y="220" width="40" height="40" fill="#136FE8"/>
<rect x="1560" y="220" width="40" height="40" fill="#136FE8"/>
<rect x="1480" y="260" width="40" height="40" fill="#136FE8"/>
<rect x="1520" y="260" width="40" height="40" fill="#136FE8"/>
<rect x="1560" y="260" width="40" height="40" fill="#136FE8"/>
<path d="M1480 188C1480 183.582 1483.58 180 1488 180H1520V220H1480V188Z" fill="#136FE8"/>
<rect x="1520" y="180" width="40" height="40" fill="#136FE8"/>
<rect x="1560" y="180" width="40" height="40" fill="#136FE8"/>
<rect x="1440" y="260" width="40" height="40" fill="#136FE8"/>
<circle cy="300" r="305" fill="#136FE8"/>
<path d="M200 32C200 36.4183 196.418 40 192 40H160V0H200V32Z" fill="#FAC636"/>
<path d="M160 72C160 76.4183 156.418 80 152 80H120V40H160V72Z" fill="#FAC636"/>
<rect x="120" y="80" width="40" height="40" transform="rotate(-180 120 80)" fill="#FAC636"/>
<rect x="80" y="80" width="40" height="40" transform="rotate(-180 80 80)" fill="#FAC636"/>
<rect x="40" y="80" width="40" height="40" transform="rotate(-180 40 80)" fill="#FAC636"/>
<rect x="120" y="40" width="40" height="40" transform="rotate(-180 120 40)" fill="#FAC636"/>
<rect x="80" y="40" width="40" height="40" transform="rotate(-180 80 40)" fill="#FAC636"/>
<rect x="40" y="40" width="40" height="40" transform="rotate(-180 40 40)" fill="#FAC636"/>
<path d="M120 112C120 116.418 116.418 120 112 120H80V80H120V112Z" fill="#FAC636"/>
<rect x="80" y="120" width="40" height="40" transform="rotate(-180 80 120)" fill="#FAC636"/>
<path d="M80 152C80 156.418 76.4183 160 72 160H40V120H80V152Z" fill="#FAC636"/>
<path d="M40 192C40 196.418 36.4183 200 32 200H0V160H40V192Z" fill="#FAC636"/>
<rect x="40" y="120" width="40" height="40" transform="rotate(-180 40 120)" fill="#FAC636"/>
<rect x="40" y="160" width="40" height="40" transform="rotate(-180 40 160)" fill="#FAC636"/>
<rect x="160" y="40" width="40" height="40" transform="rotate(-180 160 40)" fill="#FAC636"/>
<path fill-rule="evenodd" clip-rule="evenodd" d="M310.017 86.4403L367.264 86.4464V131.442C367.264 138.265 361.733 143.795 354.911 143.795H333.538H310.017V86.4403Z" fill="#FFAE74"/>
<path fill-rule="evenodd" clip-rule="evenodd" d="M310.017 149.039V143.795H333.538V163.063H324.043L310.017 149.039Z" fill="#FE924A"/>
<path fill-rule="evenodd" clip-rule="evenodd" d="M390.926 266.315L385.517 246.117H404.588V255.577L423.946 312.812H453.888L403.024 361.807C401.226 366.734 398.084 370.775 394.178 373.702V290.96C394.177 282.637 393.085 274.351 390.926 266.315" fill="#FFAE74"/>
<path fill-rule="evenodd" clip-rule="evenodd" d="M310.02 149.039V163.063C310.02 173.696 301.399 182.316 290.766 182.316H290.713H281.826H269.589H261.241V84.4025C261.241 59.8802 281.121 40 305.644 40H305.663H326.035C348.817 40 367.287 58.4689 367.287 81.2533V86.437H310.02V86.44V143.795V149.039Z" fill="black"/>
<path fill-rule="evenodd" clip-rule="evenodd" d="M186.404 246.118H223.463H240.387L240.38 246.151L223.381 309.629V309.63L212.185 351.448V400H168.77L160.399 352.522C160.136 351.023 160.003 349.503 160 347.981C159.994 345.661 160.297 343.348 160.9 341.109L186.404 246.118Z" fill="#FFAE74"/>
<path fill-rule="evenodd" clip-rule="evenodd" d="M240.379 246.152L240.388 246.118H223.462H186.403L198.317 201.645C201.413 190.113 211.942 182.152 223.883 182.317H269.585H269.586H281.823H290.71H290.763C301.396 182.317 310.016 173.696 310.016 163.061H324.044H333.537H333.568V170.047C333.568 176.823 339.062 182.317 345.839 182.317H378.562C392.965 182.317 404.641 193.993 404.641 208.394V246.118H404.589H385.517L390.926 266.315C393.084 274.353 394.178 282.637 394.179 290.96V373.702V380.336C394.179 389.214 386.981 396.411 378.103 396.412H377.125H377.107H340.833H272.723H239.376C239.183 396.412 238.997 396.39 238.806 396.382C230.195 396.086 223.296 389.032 223.29 380.347V380.305L223.382 309.63L240.379 246.152Z" fill="#E84D26"/>
<g style="mix-blend-mode:multiply">
<path fill-rule="evenodd" clip-rule="evenodd" d="M240.379 246.152C250.79 256.58 256.638 270.712 256.637 285.448V380.305C256.62 389.184 263.803 396.394 272.681 396.411C272.694 396.412 272.71 396.412 272.723 396.412H239.376C239.183 396.412 238.997 396.39 238.806 396.382C230.195 396.086 223.296 389.032 223.29 380.347V380.305L223.382 309.63L240.379 246.152Z" fill="#00C7B1"/>
</g>
<path fill-rule="evenodd" clip-rule="evenodd" d="M324.044 163.062H310.017V149.038L324.044 163.062Z" fill="#FFAE74"/>
<path fill-rule="evenodd" clip-rule="evenodd" d="M1244.46 226.469C1244.54 251.885 1265.16 272.462 1290.6 272.462C1316.07 272.453 1336.71 251.806 1336.72 226.335H1336.73V299.997H1244.45V226.469H1244.46Z" fill="white"/>
<path fill-rule="evenodd" clip-rule="evenodd" d="M1199.36 228.013C1202.06 227.507 1204.55 226.183 1206.47 224.223L1229.85 200.84C1232.46 198.229 1235.99 196.759 1239.68 196.762H1244.45V226.317V226.354L1244.45 226.351C1244.45 226.39 1244.45 226.43 1244.45 226.469H1244.45V299.997H1120C1130.65 262.94 1161.33 234.994 1199.36 228.013" fill="#1E3877"/>
<path fill-rule="evenodd" clip-rule="evenodd" d="M1336.72 196.631H1341.6C1345.29 196.631 1348.83 198.095 1351.45 200.706L1373 222.26C1375.61 224.862 1379.14 226.323 1382.83 226.32C1428.26 226.335 1468.07 256.475 1480.54 300H1336.72V226.338V196.631Z" fill="#1E3877"/>
<path fill-rule="evenodd" clip-rule="evenodd" d="M1290.6 272.465C1265.16 272.465 1244.54 251.885 1244.46 226.472C1244.46 226.432 1244.46 226.393 1244.46 226.353L1292.16 178.646H1244.45H1216.68H1216.66C1205.54 178.637 1196.54 169.619 1196.55 158.502V92.5795C1196.54 83.3578 1197.8 74.2182 1200.19 65.3738V65.4225H1249.58H1249.6C1255.87 65.4225 1260.94 70.499 1260.94 76.7625C1260.94 83.026 1266.02 88.1087 1272.28 88.1178C1278.55 88.1178 1283.64 93.2035 1283.64 99.4731V110.813L1297.56 110.847V105.664C1297.56 105.253 1297.58 104.839 1297.62 104.431C1298.27 97.9787 1304.02 93.2735 1310.48 93.9217C1316.61 94.6917 1321.19 99.9631 1321.08 106.15V115.996C1321.08 124.643 1328.08 131.652 1336.73 131.661V226.32V226.338C1336.72 251.809 1316.07 272.456 1290.6 272.465" fill="#FFAE74"/>
<path fill-rule="evenodd" clip-rule="evenodd" d="M1244.46 226.348H1244.45V226.315V196.76V178.645H1292.16L1244.46 226.348Z" fill="#FE924A"/>
<path fill-rule="evenodd" clip-rule="evenodd" d="M1321.08 115.998V106.152C1321.18 99.9647 1316.61 94.6934 1310.47 93.9234C1304.02 93.2751 1298.26 97.9803 1297.62 104.433C1297.57 104.84 1297.56 105.254 1297.56 105.665V110.848L1283.63 110.815V99.4747C1283.63 93.2051 1278.55 88.1194 1272.28 88.1194C1266.01 88.1103 1260.94 83.0277 1260.94 76.7642C1260.94 70.5006 1255.86 65.4241 1249.6 65.4241H1249.58H1200.18V65.3754L1200.37 48.1462C1200.5 32.5635 1213.17 20 1228.75 20H1275.25C1309.21 20 1336.74 47.5314 1336.74 81.4937V131.666C1336.74 131.666 1336.73 131.663 1336.72 131.663C1328.08 131.657 1321.08 124.644 1321.08 115.998" fill="black"/>
<path d="M653.121 73.152L648.729 90H643.761L641.073 78.912L638.289 90H633.321L629.049 73.152H633.441L635.865 85.416L638.865 73.152H643.377L646.257 85.416L648.705 73.152H653.121ZM663.411 76.464C664.947 76.464 666.179 76.976 667.107 78C668.035 79.008 668.499 80.4 668.499 82.176V90H664.419V82.728C664.419 81.832 664.187 81.136 663.723 80.64C663.259 80.144 662.635 79.896 661.851 79.896C661.067 79.896 660.443 80.144 659.979 80.64C659.515 81.136 659.283 81.832 659.283 82.728V90H655.179V72.24H659.283V78.408C659.699 77.816 660.267 77.344 660.987 76.992C661.707 76.64 662.515 76.464 663.411 76.464ZM670.535 83.28C670.535 81.904 670.791 80.696 671.303 79.656C671.831 78.616 672.543 77.816 673.439 77.256C674.335 76.696 675.335 76.416 676.439 76.416C677.383 76.416 678.207 76.608 678.911 76.992C679.631 77.376 680.183 77.88 680.567 78.504V76.608H684.671V90H680.567V88.104C680.167 88.728 679.607 89.232 678.887 89.616C678.183 90 677.359 90.192 676.415 90.192C675.327 90.192 674.335 89.912 673.439 89.352C672.543 88.776 671.831 87.968 671.303 86.928C670.791 85.872 670.535 84.656 670.535 83.28ZM680.567 83.304C680.567 82.28 680.279 81.472 679.703 80.88C679.143 80.288 678.455 79.992 677.639 79.992C676.823 79.992 676.127 80.288 675.551 80.88C674.991 81.456 674.711 82.256 674.711 83.28C674.711 84.304 674.991 85.12 675.551 85.728C676.127 86.32 676.823 86.616 677.639 86.616C678.455 86.616 679.143 86.32 679.703 85.728C680.279 85.136 680.567 84.328 680.567 83.304ZM695.104 86.52V90H693.016C691.528 90 690.368 89.64 689.536 88.92C688.704 88.184 688.288 86.992 688.288 85.344V80.016H686.656V76.608H688.288V73.344H692.392V76.608H695.08V80.016H692.392V85.392C692.392 85.792 692.488 86.08 692.68 86.256C692.872 86.432 693.192 86.52 693.64 86.52H695.104ZM701.66 83.304C701.66 81.912 701.94 80.696 702.5 79.656C703.076 78.616 703.868 77.816 704.876 77.256C705.9 76.696 707.068 76.416 708.38 76.416C710.06 76.416 711.46 76.856 712.58 77.736C713.716 78.616 714.46 79.856 714.812 81.456H710.444C710.076 80.432 709.364 79.92 708.308 79.92C707.556 79.92 706.956 80.216 706.508 80.808C706.06 81.384 705.836 82.216 705.836 83.304C705.836 84.392 706.06 85.232 706.508 85.824C706.956 86.4 707.556 86.688 708.308 86.688C709.364 86.688 710.076 86.176 710.444 85.152H714.812C714.46 86.72 713.716 87.952 712.58 88.848C711.444 89.744 710.044 90.192 708.38 90.192C707.068 90.192 705.9 89.912 704.876 89.352C703.868 88.792 703.076 87.992 702.5 86.952C701.94 85.912 701.66 84.696 701.66 83.304ZM716.192 83.28C716.192 81.904 716.448 80.696 716.96 79.656C717.488 78.616 718.2 77.816 719.096 77.256C719.992 76.696 720.992 76.416 722.096 76.416C723.04 76.416 723.864 76.608 724.568 76.992C725.288 77.376 725.84 77.88 726.224 78.504V76.608H730.328V90H726.224V88.104C725.824 88.728 725.264 89.232 724.544 89.616C723.84 90 723.016 90.192 722.072 90.192C720.984 90.192 719.992 89.912 719.096 89.352C718.2 88.776 717.488 87.968 716.96 86.928C716.448 85.872 716.192 84.656 716.192 83.28ZM726.224 83.304C726.224 82.28 725.936 81.472 725.36 80.88C724.8 80.288 724.112 79.992 723.296 79.992C722.48 79.992 721.784 80.288 721.208 80.88C720.648 81.456 720.368 82.256 720.368 83.28C720.368 84.304 720.648 85.12 721.208 85.728C721.784 86.32 722.48 86.616 723.296 86.616C724.112 86.616 724.8 86.32 725.36 85.728C725.936 85.136 726.224 84.328 726.224 83.304ZM741.457 76.464C743.025 76.464 744.273 76.976 745.201 78C746.145 79.008 746.617 80.4 746.617 82.176V90H742.537V82.728C742.537 81.832 742.305 81.136 741.841 80.64C741.377 80.144 740.753 79.896 739.969 79.896C739.185 79.896 738.561 80.144 738.097 80.64C737.633 81.136 737.401 81.832 737.401 82.728V90H733.297V76.608H737.401V78.384C737.817 77.792 738.377 77.328 739.081 76.992C739.785 76.64 740.577 76.464 741.457 76.464ZM773.778 76.608L770.154 90H765.618L763.506 81.312L761.322 90H756.81L753.162 76.608H757.266L759.162 86.184L761.418 76.608H765.762L768.042 86.136L769.914 76.608H773.778ZM787.967 83.088C787.967 83.472 787.943 83.872 787.895 84.288H778.607C778.671 85.12 778.935 85.76 779.399 86.208C779.879 86.64 780.463 86.856 781.151 86.856C782.175 86.856 782.887 86.424 783.287 85.56H787.655C787.431 86.44 787.023 87.232 786.431 87.936C785.855 88.64 785.127 89.192 784.247 89.592C783.367 89.992 782.383 90.192 781.295 90.192C779.983 90.192 778.815 89.912 777.791 89.352C776.767 88.792 775.967 87.992 775.391 86.952C774.815 85.912 774.527 84.696 774.527 83.304C774.527 81.912 774.807 80.696 775.367 79.656C775.943 78.616 776.743 77.816 777.767 77.256C778.791 76.696 779.967 76.416 781.295 76.416C782.591 76.416 783.743 76.688 784.751 77.232C785.759 77.776 786.543 78.552 787.103 79.56C787.679 80.568 787.967 81.744 787.967 83.088ZM783.767 82.008C783.767 81.304 783.527 80.744 783.047 80.328C782.567 79.912 781.967 79.704 781.247 79.704C780.559 79.704 779.975 79.904 779.495 80.304C779.031 80.704 778.743 81.272 778.631 82.008H783.767ZM803.45 76.464C804.986 76.464 806.218 76.976 807.146 78C808.074 79.008 808.538 80.4 808.538 82.176V90H804.458V82.728C804.458 81.832 804.226 81.136 803.762 80.64C803.298 80.144 802.674 79.896 801.89 79.896C801.106 79.896 800.482 80.144 800.018 80.64C799.554 81.136 799.322 81.832 799.322 82.728V90H795.218V72.24H799.322V78.408C799.738 77.816 800.306 77.344 801.026 76.992C801.746 76.64 802.554 76.464 803.45 76.464ZM824.014 83.088C824.014 83.472 823.99 83.872 823.942 84.288H814.654C814.718 85.12 814.982 85.76 815.446 86.208C815.926 86.64 816.51 86.856 817.198 86.856C818.222 86.856 818.934 86.424 819.334 85.56H823.702C823.478 86.44 823.07 87.232 822.478 87.936C821.902 88.64 821.174 89.192 820.294 89.592C819.414 89.992 818.43 90.192 817.342 90.192C816.03 90.192 814.862 89.912 813.838 89.352C812.814 88.792 812.014 87.992 811.438 86.952C810.862 85.912 810.574 84.696 810.574 83.304C810.574 81.912 810.854 80.696 811.414 79.656C811.99 78.616 812.79 77.816 813.814 77.256C814.838 76.696 816.014 76.416 817.342 76.416C818.638 76.416 819.79 76.688 820.798 77.232C821.806 77.776 822.59 78.552 823.15 79.56C823.726 80.568 824.014 81.744 824.014 83.088ZM819.814 82.008C819.814 81.304 819.574 80.744 819.094 80.328C818.614 79.912 818.014 79.704 817.294 79.704C816.606 79.704 816.022 79.904 815.542 80.304C815.078 80.704 814.79 81.272 814.678 82.008H819.814ZM830.283 72.24V90H826.179V72.24H830.283ZM837.362 78.504C837.762 77.88 838.314 77.376 839.018 76.992C839.722 76.608 840.546 76.416 841.49 76.416C842.594 76.416 843.594 76.696 844.49 77.256C845.386 77.816 846.09 78.616 846.602 79.656C847.13 80.696 847.394 81.904 847.394 83.28C847.394 84.656 847.13 85.872 846.602 86.928C846.09 87.968 845.386 88.776 844.49 89.352C843.594 89.912 842.594 90.192 841.49 90.192C840.562 90.192 839.738 90 839.018 89.616C838.314 89.232 837.762 88.736 837.362 88.128V96.384H833.258V76.608H837.362V78.504ZM843.218 83.28C843.218 82.256 842.93 81.456 842.354 80.88C841.794 80.288 841.098 79.992 840.266 79.992C839.45 79.992 838.754 80.288 838.178 80.88C837.618 81.472 837.338 82.28 837.338 83.304C837.338 84.328 837.618 85.136 838.178 85.728C838.754 86.32 839.45 86.616 840.266 86.616C841.082 86.616 841.778 86.32 842.354 85.728C842.93 85.12 843.218 84.304 843.218 83.28ZM868.313 76.608L859.913 96.36H855.497L858.569 89.544L853.121 76.608H857.705L860.801 84.984L863.873 76.608H868.313ZM875.893 90.192C874.581 90.192 873.397 89.912 872.341 89.352C871.301 88.792 870.477 87.992 869.869 86.952C869.277 85.912 868.981 84.696 868.981 83.304C868.981 81.928 869.285 80.72 869.893 79.68C870.501 78.624 871.333 77.816 872.389 77.256C873.445 76.696 874.629 76.416 875.941 76.416C877.253 76.416 878.437 76.696 879.493 77.256C880.549 77.816 881.381 78.624 881.989 79.68C882.597 80.72 882.901 81.928 882.901 83.304C882.901 84.68 882.589 85.896 881.965 86.952C881.357 87.992 880.517 88.792 879.445 89.352C878.389 89.912 877.205 90.192 875.893 90.192ZM875.893 86.64C876.677 86.64 877.341 86.352 877.885 85.776C878.445 85.2 878.725 84.376 878.725 83.304C878.725 82.232 878.453 81.408 877.909 80.832C877.381 80.256 876.725 79.968 875.941 79.968C875.141 79.968 874.477 80.256 873.949 80.832C873.421 81.392 873.157 82.216 873.157 83.304C873.157 84.376 873.413 85.2 873.925 85.776C874.453 86.352 875.109 86.64 875.893 86.64ZM898.302 76.608V90H894.198V88.176C893.782 88.768 893.214 89.248 892.494 89.616C891.79 89.968 891.006 90.144 890.142 90.144C889.118 90.144 888.214 89.92 887.43 89.472C886.646 89.008 886.038 88.344 885.606 87.48C885.174 86.616 884.958 85.6 884.958 84.432V76.608H889.038V83.88C889.038 84.776 889.27 85.472 889.734 85.968C890.198 86.464 890.822 86.712 891.606 86.712C892.406 86.712 893.038 86.464 893.502 85.968C893.966 85.472 894.198 84.776 894.198 83.88V76.608H898.302ZM925.56 76.608L921.936 90H917.4L915.288 81.312L913.104 90H908.592L904.944 76.608H909.048L910.944 86.184L913.2 76.608H917.544L919.824 86.136L921.696 76.608H925.56ZM929.189 75.216C928.469 75.216 927.877 75.008 927.413 74.592C926.965 74.16 926.741 73.632 926.741 73.008C926.741 72.368 926.965 71.84 927.413 71.424C927.877 70.992 928.469 70.776 929.189 70.776C929.893 70.776 930.469 70.992 930.917 71.424C931.381 71.84 931.613 72.368 931.613 73.008C931.613 73.632 931.381 74.16 930.917 74.592C930.469 75.008 929.893 75.216 929.189 75.216ZM931.229 76.608V90H927.125V76.608H931.229ZM941.667 86.52V90H939.579C938.091 90 936.931 89.64 936.099 88.92C935.267 88.184 934.851 86.992 934.851 85.344V80.016H933.219V76.608H934.851V73.344H938.955V76.608H941.643V80.016H938.955V85.392C938.955 85.792 939.051 86.08 939.243 86.256C939.435 86.432 939.755 86.52 940.203 86.52H941.667ZM952.185 76.464C953.721 76.464 954.953 76.976 955.881 78C956.809 79.008 957.273 80.4 957.273 82.176V90H953.193V82.728C953.193 81.832 952.961 81.136 952.497 80.64C952.033 80.144 951.409 79.896 950.625 79.896C949.841 79.896 949.217 80.144 948.753 80.64C948.289 81.136 948.057 81.832 948.057 82.728V90H943.953V72.24H948.057V78.408C948.473 77.816 949.041 77.344 949.761 76.992C950.481 76.64 951.289 76.464 952.185 76.464ZM965.045 72.216C966.757 72.216 968.125 72.664 969.149 73.56C970.189 74.456 970.709 75.72 970.709 77.352C970.709 78.856 970.213 80.032 969.221 80.88C968.245 81.712 966.949 82.136 965.333 82.152L965.213 83.952H961.613L961.493 79.488H962.933C964.165 79.488 965.101 79.336 965.741 79.032C966.397 78.728 966.725 78.176 966.725 77.376C966.725 76.816 966.573 76.376 966.269 76.056C965.965 75.736 965.541 75.576 964.997 75.576C964.421 75.576 963.973 75.744 963.653 76.08C963.333 76.4 963.173 76.84 963.173 77.4H959.309C959.277 76.424 959.477 75.544 959.909 74.76C960.357 73.976 961.013 73.36 961.877 72.912C962.757 72.448 963.813 72.216 965.045 72.216ZM963.461 90.192C962.741 90.192 962.149 89.984 961.685 89.568C961.237 89.136 961.013 88.608 961.013 87.984C961.013 87.344 961.237 86.808 961.685 86.376C962.149 85.944 962.741 85.728 963.461 85.728C964.165 85.728 964.741 85.944 965.189 86.376C965.653 86.808 965.885 87.344 965.885 87.984C965.885 88.608 965.653 89.136 965.189 89.568C964.741 89.984 964.165 90.192 963.461 90.192Z" fill="#A1CCF7"/>
<g clip-path="url(#clip1)">
<path d="M40 168C40 163.6 43.6 160 48 160L40 160L40 168Z" fill="#FAC636"/>
</g>
<g clip-path="url(#clip2)">
<path d="M80 128C80 123.6 83.6 120 88 120L80 120L80 128Z" fill="#FAC636"/>
</g>
<g clip-path="url(#clip3)">
<path d="M120 88C120 83.6 123.6 80 128 80L120 80L120 88Z" fill="#FAC636"/>
</g>
<g clip-path="url(#clip4)">
<path d="M160 48C160 43.6 163.6 40 168 40L160 40L160 48Z" fill="#FAC636"/>
</g>
<g clip-path="url(#clip5)">
<path d="M1480 212C1480 216.4 1476.4 220 1472 220L1480 220L1480 212Z" fill="#136FE8"/>
</g>
</g>
<defs>
<clipPath id="clip0">
<rect width="1600" height="300" fill="white"/>
</clipPath>
<clipPath id="clip1">
<rect width="8" height="8" fill="white" transform="translate(40 168) rotate(-90)"/>
</clipPath>
<clipPath id="clip2">
<rect width="8" height="8" fill="white" transform="translate(80 128) rotate(-90)"/>
</clipPath>
<clipPath id="clip3">
<rect width="8" height="8" fill="white" transform="translate(120 88) rotate(-90)"/>
</clipPath>
<clipPath id="clip4">
<rect width="8" height="8" fill="white" transform="translate(160 48) rotate(-90)"/>
</clipPath>
<clipPath id="clip5">
<rect width="8" height="8" fill="white" transform="translate(1480 212) rotate(90)"/>
</clipPath>
</defs>
</svg>
